<svg width="100" height="47" viewBox="0 0 100 47" fill="none" xmlns="http://www.w3.org/2000/svg">
<path d="M21.0082 15.416C21.0082 14 21.8962 13.016 23.1202 12.368C22.7602 11.768 22.6162 11.12 22.6162 10.352C22.6162 8.6 24.0562 7.112 26.5522 7.112C28.3522 7.112 29.1682 7.688 29.7442 8.096L28.8802 10.256C28.5202 9.968 27.8242 9.464 26.7922 9.464C25.8802 9.464 25.4002 9.872 25.4002 10.376C25.4002 11.192 26.0002 11.504 27.0802 12.248L28.8322 13.448C30.4162 14.528 31.2562 15.632 31.2562 17.216C31.2562 18.608 30.3922 19.568 29.1202 20.264C29.5282 20.888 29.7202 21.584 29.7202 22.376C29.7202 24.128 28.2322 25.688 25.6162 25.688C23.7202 25.688 22.6642 25.016 21.9922 24.44L22.9282 22.112C23.3842 22.592 24.2242 23.264 25.4002 23.264C26.4082 23.264 26.8642 22.928 26.8642 22.4C26.8642 21.656 26.3362 21.176 25.1362 20.36L23.3842 19.184C21.8242 18.128 21.0082 17 21.0082 15.416ZM27.1762 18.368C27.3682 18.512 27.5602 18.632 27.7282 18.776C28.2322 18.488 28.5682 18.152 28.5682 17.648C28.5682 16.736 28.0162 16.256 26.7442 15.392L25.0882 14.264C24.8722 14.12 24.6802 13.976 24.4882 13.832C24.0082 14.12 23.6722 14.48 23.6722 14.984C23.6722 15.896 24.2962 16.376 25.5442 17.24L27.1762 18.368ZM47.4262 11.168C47.4262 13.232 46.2502 14.288 44.7142 14.936V14.984C46.3462 15.416 47.7862 16.448 47.7862 18.776C47.7862 21.464 45.8662 23.288 42.6022 23.288C39.9862 23.288 38.6182 21.896 38.2102 21.44L39.4342 19.112C39.8662 19.64 40.8022 20.672 42.4342 20.672C43.9462 20.672 44.7622 20 44.7622 18.776C44.7622 17.216 43.5382 16.4 41.4022 16.4H40.4422L40.2502 14.12H40.8502C43.5142 14.12 44.5462 13.088 44.5462 11.528C44.5462 10.448 43.8502 9.656 42.5302 9.656C41.0422 9.656 40.0822 10.448 39.6742 10.88L38.5702 8.864C39.1462 8.312 40.6342 7.112 43.1302 7.112C45.7702 7.112 47.4262 8.648 47.4262 11.168Z" fill="#336F91"/>
<path d="M71.0226 31.7561C71.6084 31.1703 71.6084 30.2206 71.0226 29.6348L61.4766 20.0888C60.8908 19.503 59.9411 19.503 59.3553 20.0888C58.7695 20.6746 58.7695 21.6244 59.3553 22.2102L67.8406 30.6954L59.3553 39.1807C58.7695 39.7665 58.7695 40.7162 59.3553 41.302C59.9411 41.8878 60.8908 41.8878 61.4766 41.302L71.0226 31.7561ZM69.9619 30.6954V29.1954L-0.000183105 29.1954V30.6954V32.1954L69.9619 32.1954V30.6954Z" fill="#336F91"/>
</svg>
