<svg width="100" height="93" viewBox="0 0 100 93" fill="none" xmlns="http://www.w3.org/2000/svg">
<path d="M20.2045 21.6747C20.7903 22.2605 21.74 22.2605 22.3258 21.6747L31.8717 12.1288C32.4575 11.543 32.4575 10.5932 31.8717 10.0074C31.286 9.42166 30.3362 9.42166 29.7504 10.0074L21.2651 18.4927L12.7799 10.0074C12.1941 9.42166 11.2443 9.42166 10.6585 10.0074C10.0727 10.5932 10.0727 11.543 10.6585 12.1288L20.2045 21.6747ZM21.2651 20.614L22.7651 20.614L22.7651 1.97322e-06L21.2651 1.90735e-06L19.7651 1.84148e-06L19.7651 20.614L21.2651 20.614Z" fill="#336F91"/>
<path d="M20.2045 82.0177C20.7903 82.6034 21.74 82.6034 22.3258 82.0177L31.8717 72.4717C32.4575 71.8859 32.4575 70.9362 31.8717 70.3504C31.286 69.7646 30.3362 69.7646 29.7504 70.3504L21.2651 78.8357L12.7799 70.3504C12.1941 69.7646 11.2443 69.7646 10.6585 70.3504C10.0727 70.9362 10.0727 71.8859 10.6585 72.4717L20.2045 82.0177ZM21.2651 80.957L22.7651 80.957L22.7651 60.343L21.2651 60.343L19.7651 60.343L19.7651 80.957L21.2651 80.957Z" fill="#336F91"/>
<path d="M61.0607 42.2894C61.6464 41.7036 61.6464 40.7539 61.0607 40.1681L51.5147 30.6221C50.9289 30.0363 49.9792 30.0363 49.3934 30.6221C48.8076 31.2079 48.8076 32.1577 49.3934 32.7434L57.8787 41.2287L49.3934 49.714C48.8076 50.2998 48.8076 51.2495 49.3934 51.8353C49.9792 52.4211 50.9289 52.4211 51.5147 51.8353L61.0607 42.2894ZM60 41.2287L60 39.7287L39.4808 39.7287L39.4808 41.2287L39.4808 42.7287L60 42.7287L60 41.2287Z" fill="#336F91"/>
<rect y="2.1262" width="26.9152" height="26.9152" rx="6.5" transform="matrix(0.705475 0.708735 -0.705475 0.708735 22.6045 20.4838)" fill="white" stroke="#336F91" stroke-width="3"/>
</svg>
