<?xml version="1.0" encoding="UTF-8" standalone="no"?>
<!DOCTYPE svg PUBLIC "-//W3C//DTD SVG 1.1//EN" "http://www.w3.org/Graphics/SVG/1.1/DTD/svg11.dtd">
<svg width="60px" height="77px" version="1.1" xmlns="http://www.w3.org/2000/svg" xmlns:xlink="http://www.w3.org/1999/xlink" xml:space="preserve" xmlns:serif="http://www.serif.com/" style="fill-rule:evenodd;clip-rule:evenodd;stroke-linejoin:round;stroke-miterlimit:2;">
    <g id="BoundingBox">
        <rect x="0" y="0" width="60" height="77" style="fill:none;"/>
    </g>
    <g id="Adler">
        <path d="M2.837,22.22l0,33.286c0,1.568 -1.269,2.838 -2.837,2.838l0,-38.193c0.921,0.723 1.867,1.414 2.837,2.069Zm4.267,2.57l0,29.294c1.568,-0 2.838,-1.27 2.838,-2.838l-0,-25.055c-0.963,-0.436 -1.91,-0.904 -2.838,-1.401Zm7.105,3.089l-0,21.936c1.566,0 2.837,-1.27 2.837,-2.838l0,-18.225c-0.737,-0.194 -2.092,-0.603 -2.837,-0.873Zm10.094,17.789c-0.384,-3.28 -1.049,-8.653 -0.453,-15.571c-0.78,-0.087 -1.853,-0.276 -2.661,-0.423c-0.61,7.162 -0.015,12.664 0.443,16.625c-0,-0 1.239,-0.393 2.671,-0.631Zm32.859,-23.448l0,33.286c0,1.568 1.27,2.838 2.838,2.838l-0,-38.193c-0.921,0.723 -1.867,1.414 -2.838,2.069Zm-7.104,3.971l-0,25.055c-0,1.568 1.27,2.838 2.838,2.838l-0,-29.294c-0.929,0.497 -1.875,0.965 -2.838,1.401Zm-7.105,2.561l0,18.225c0,1.568 1.272,2.838 2.838,2.838l0,-21.936c-0.746,0.27 -2.1,0.679 -2.838,0.873Zm-4.585,17.547c0.458,-3.961 1.053,-9.463 0.443,-16.625c-0.808,0.147 -1.881,0.336 -2.661,0.423c0.596,6.918 -0.07,12.291 -0.454,15.571c1.433,0.238 2.672,0.631 2.672,0.631Z" style="fill:rgb(220,0,0);fill-rule:nonzero;"/>
        <path d="M16.224,68.643c-1.508,-0.029 -2.73,-1.262 -2.734,-2.773l-0,-2.932l-4.787,4.398c-1.002,-1.122 -0.935,-2.855 0.16,-3.887l2.292,-2.138l-5.027,-0c0.014,-0.724 0.303,-1.401 0.815,-1.913c0.525,-0.524 1.224,-0.815 1.967,-0.815l5.261,0l6.854,-6.668c0.971,-0.946 1.076,-1.255 1.083,-2.216c1.006,-0.445 1.689,-0.616 2.55,-0.78l0,0.739c0,1.744 -0.059,2.508 -1.54,3.949c-1.522,1.48 -6.022,5.86 -6.022,5.86l2.556,1.023c0.709,0.232 1.282,0.725 1.619,1.388c0.326,0.645 0.389,1.377 0.179,2.067l-5.226,-2.008l0,6.706l0,0Zm13.776,8.357c3.733,-0 7.753,-0.746 10.754,-1.994l1.963,-0.816c0,-0 -0.634,-0.642 -1.509,-1.5c-4.966,-4.869 -6.366,-9.75 -5.175,-16.214c-1.34,-1.291 -1.645,-1.618 -2.185,-2.467c-1.089,4.862 -2.228,12.331 3.833,19.072c-2.291,0.672 -5.082,1.181 -7.681,1.181c-2.6,-0 -5.39,-0.509 -7.681,-1.181c6.061,-6.741 4.922,-14.21 3.833,-19.072c-0.54,0.849 -0.845,1.176 -2.185,2.467c1.191,6.464 -0.209,11.345 -5.176,16.214c-0.874,0.858 -1.508,1.5 -1.508,1.5l1.963,0.816c3.001,1.248 7.021,1.994 10.754,1.994Zm13.775,-8.357c1.509,-0.029 2.731,-1.262 2.735,-2.773l0,-2.932l4.787,4.399c1.001,-1.123 0.935,-2.856 -0.16,-3.888l-2.293,-2.138l5.027,-0c-0.013,-0.724 -0.302,-1.401 -0.814,-1.913c-0.526,-0.524 -1.224,-0.815 -1.968,-0.815l-5.26,0l-6.854,-6.668c-0.971,-0.946 -1.076,-1.255 -1.084,-2.216c-1.005,-0.445 -1.689,-0.616 -2.55,-0.78l0,0.739c0,1.744 0.06,2.508 1.541,3.949c1.521,1.48 6.022,5.86 6.022,5.86l-2.556,1.023c-0.709,0.232 -1.282,0.725 -1.619,1.388c-0.326,0.645 -0.39,1.377 -0.179,2.068l5.225,-2.009l0,6.706Z" style="fill:rgb(240,180,5);fill-rule:nonzero;"/>
        <path d="M36.647,12.955c0.62,2.84 1.203,5.807 1.517,9.499c-0.875,0.218 -1.839,0.34 -2.815,0.398c-0.267,-3.51 -0.865,-6.503 -1.473,-9.292c-0.247,-1.127 -0.48,-2.193 -0.673,-3.164c-0.504,-2.519 -0.005,-4.214 1.534,-5.42l-4.938,-1.859c-1.155,-0.457 -2.105,-0.165 -2.955,0.755l-0.204,0.212l-0.669,-0.208c-0.299,-0.092 -0.868,-0.274 -1.71,-0.274c-0.772,-0 -1.422,0.749 -1.422,1.701l0,2.189c1.291,0 2.373,0.147 3.162,0.568c0.905,0.484 1.618,1.322 1.618,2.857c0,2.858 -2.168,8.106 -2.923,11.95c-1.021,-0.067 -1.808,-0.171 -2.833,-0.391c0.708,-3.819 2.832,-8.608 2.832,-10.894c-0,-1.325 -1.197,-1.325 -2.647,-1.325l-2.046,-0l-0,-5.104c-0,-1.235 0.325,-2.511 1.256,-3.321c0.799,-0.695 1.655,-0.954 2.67,-0.954c0.86,0 1.373,0.17 1.917,0.27c1.77,-1.395 3.187,-1.4 5.054,-0.647l9.622,4.046l-0.451,0.179c0,0 -4.834,1.801 -4.085,5.115c0.212,0.941 0.418,1.998 0.662,3.114Zm-28.081,-11.213c-4.73,-0 -8.566,3.834 -8.566,8.565l0,4.611c0.92,0.724 1.866,1.414 2.837,2.069l0,-6.68c0,-3.164 2.565,-5.728 5.729,-5.728l4.224,-0c0.782,-0 1.492,-0.317 2.006,-0.831c0.514,-0.512 0.831,-1.223 0.831,-2.006l-7.061,-0Zm10.854,17.538c-8.093,-2.346 -9.478,-3.845 -9.478,-7.277l-0,-3.3c-1.568,0 -2.838,1.27 -2.838,2.838l-0,0.88c-0,4.747 1.762,6.923 11.601,9.458c0.21,-0.968 0.369,-1.576 0.715,-2.599Zm24.953,-17.538c-0,0.783 0.317,1.494 0.831,2.006c0.514,0.514 1.224,0.831 2.006,0.831l4.224,-0c3.164,-0 5.728,2.564 5.728,5.728l0,6.68c0.971,-0.655 1.917,-1.345 2.838,-2.069l-0,-4.611c-0,-4.731 -3.836,-8.565 -8.566,-8.565l-7.061,-0Zm-3.101,20.137c9.84,-2.535 11.624,-4.711 11.624,-9.458l-0,-0.88c-0,-1.568 -1.271,-2.838 -2.838,-2.838l-0,3.3c-0,3.376 -1.346,4.882 -9.092,7.163c0.131,0.888 0.234,1.816 0.306,2.713Z" style="fill-rule:nonzero;"/>
    </g>
</svg>
