<svg xmlns="http://www.w3.org/2000/svg" fill="none" aria-labelledby="logo-hessenweb-description" viewBox="0 0 197.62 64.02"><path fill="#14006E" d="M52.047 19.66c-.294-.196-.64-.4-.852-.582a5 5 0 0 1-.483-.438c-.377-.326-.61-.658-.58-1.173 0-.113-.098-.241-.219-.257-.354-.053-.709-.12-1.056-.189-.61-.143-1.357-.491-1.206-1.21.188-.544.708-.952.09-1.504-.083-.084-.136-.174-.128-.242 0-.068.068-.144.15-.19a.51.51 0 0 0 .28-.408.77.77 0 0 0-.113-.453c-.694-.908.814-.711 1.252-1.15.497-.4.475-1.074.135-1.558-.12-.196-.098-.378.129-.423.339-.068.927-.098 1.078-.544.06-.152.075-.401-.12-.522-.152-.098-.446-.023-.468-.197-.015-.196.686-.189.852-.43.324-.454-.143-1.044-.671-.885-.189.03-.355.287-.483.363-.136.075-.181-.076-.128-.182.437-.847-1.063-1.12-1.071-.257 0 .197.015.295-.053.302-.053 0-.068-.09-.075-.143-.03-.204-.09-.462-.242-.56-.377-.25-.942.038-.92.5a.67.67 0 0 0-.218-.386c-.43-.348-.853-.091-1.086.31-.053.068-.106.166-.166.12-.053-.037-.076-.143-.068-.211-.015-.356-.294-.673-.679-.53a.9.9 0 0 0-.392.379 1.1 1.1 0 0 0-.106.529.4.4 0 0 0 .121.265c-.098-.06-.196-.121-.317-.174a.78.78 0 0 0-.663 0 .9.9 0 0 0-.272-.65c.234-.167.37-.492.264-.78-.188-.559-.943-.4-1.07.099-.054.144.165.234.233.098.09-.196.415-.333.49-.083.053.197-.166.461-.37.431-.422-.09-.92.076-1.236.575-.09-.227-.324-.325-.58-.257.105-.084.248-.16.361-.25.257-.181.294-.544.03-.733-.173-.152-.445-.167-.64-.16h-.302c.06-.143.128-.294.166-.392.12-.379-.151-.575-.468-.613.234-.348.211-.9-.158-1.127-.325-.196-.694-.022-.694-.022s.588-.583.037-1.044c-.467-.393-1.13.204-1.13.204s.188-.756-.37-1.028c-.49-.242-1.064-.113-1.245.4l-.256.666c-.053-.143-.023-.363-.075-.506-.234-.636-1.215-.371-1.267.31-.015.098 0 .204 0 .302a.56.56 0 0 0-.49-.038c-.34.121-.513.56-.34.877.075.152.189.25.31.326a.42.42 0 0 0-.355.28c0 .03-.015.06-.023.09-.218-.287-.686-.325-.92-.045-.098.098.06.257.158.158.234-.196.589-.045.611.28.015.083.023.182.06.303.038.151.197.272.37.227.272-.068.242-.439.068-.749-.106-.204.068-.287.204-.19.21.167.158.44.203.689a.49.49 0 0 0 .868.272c.226-.257.331-.665.12-.96-.316-.348-.716-.28-1.07-.476-.151-.076-.302-.174-.363-.295-.15-.257.09-.613.392-.552.197.037.31.234.347.295.023.03.083.09.166.052.06-.03.053-.105.03-.166-.188-.476-.128-.907.25-1.013.173-.053.377.015.43.166.037.151.067.59.21.711.098.09.242.015.28-.09l.339-.78c.188-.484.905-.46 1.07 0 .099.242 0 .507-.082.734-.068.227.188.363.384.22.098-.076.68-.628.935-.318.242.287-.24.544-.278.763-.038.242.15.431.497.348.046-.015.52-.174.558.167a.54.54 0 0 1-.249.536c-.377.265-1.229-.022-1.455.568-.181.476.317.884.747.695.324-.151.482-.59.708-.748.159-.114.513-.137.604-.038.098.106-.159.514-.234.68-.06.144.015.265.15.257h.559c.173 0 .302-.015.422.084.174.136-.136.257-.249.347-.143.106-.347.22-.347.462.016.227.25.332.423.272l.128-.038c.105-.015.143.015.166.159.037.348-.242.658-.58.643-.13-.015-.22-.099-.393-.114-.513-.045-.686.688-.294.9.023.015.068.03.075.076.023.083-.015.189-.188.189a.26.26 0 0 1-.257-.212.4.4 0 0 0-.309-.295c-.219-.045-.46.106-.49.31-.068.5-.37.484-.43.469-.15-.038-.241-.197-.219-.355.023-.167.144-.772-.301-.87a.55.55 0 0 0-.611.31c-.196.454-.06 1.006.15 1.452 1.064 1.845 4.118.877 4.48-1.044.151.06.317.076.483.06a4.5 4.5 0 0 0-.143 1.49c.045.583.256 1.195.746 1.55 1.018.689 2.383.114 3.183-.672.407-.363.882-1.293.173-1.611-.377-.136-.663.197-.754.507-.136.302-.12.839-.55.847-.22-.016-.393-.174-.325-.416.015-.084.06-.144.045-.25-.022-.181-.226-.34-.361-.25-.513.333-.762.076-.853-.158-.067-.182.016-.378.212-.537l.037-.03c.113-.099.294-.197.242-.394-.046-.158-.189-.234-.287-.31-.249-.166-.437-.453-.271-.733.316-.484.867.12 1.236.265.234.09.513-.152.407-.401-.052-.136-.369-.242-.422-.416-.068-.242.136-.635.302-.65.173-.023.256.166.264.317 0 .469.452.635.701.22.098-.144.241-.34.407-.356a.395.395 0 0 1 .43.393c.03.295-.286.514-.256.817.015.363.219.703.573.824.43.144.777-.113.784-.567 0-.272-.173-.567-.354-.771-.204-.227-.241-.5-.053-.643.143-.121.43-.076.468.302a.42.42 0 0 0 .09.25c.083.098.181.129.31.113.158-.022.226-.158.233-.378 0-.09-.015-.31.143-.4.22-.137.657.015.513.31-.196.347-.045.763.362.665.181-.045.287-.197.4-.302.143-.152.437-.114.513.083.03.083.053.196-.015.272-.174.197-.498.212-.74.318-.324.136-.278.582.091.635.136.022.211.083.189.211-.046.22-.573.227-.943.28-.55.053-.784.59-.498.998.634.885-.105 1.112-.558 1.225-1.056.273-1.221.719-1.191 1.309.015.34.271.635.248.816-.022.151-.218.227-.361.31-.483-.264-1.17-.25-1.433.212-.355.613.24 1.338 1.055 1.406.227 0 .43-.075.43-.068-.03.099-.233.431.098.885a118 118 0 0 1-1.772-.499c-1.561-.469-3.107-.99-4.69-1.406a56 56 0 0 0-9.292-1.619 52 52 0 0 0-2.67-.166h-.21a63 63 0 0 0-2.09-.045h-.445.22c-.665 0-1.313.015-1.977.037-.483.016-.95.053-1.425.084-.257.015-.52.022-.77.045-.045 0-.097 0-.143.015-.18.015-.362.023-.543.038-3.137.28-6.252.817-9.29 1.618-.627.166-1.245.355-1.864.545-.475.128-.95.28-1.455.446q-.666.213-1.342.416c-.016 0-.038 0-.053.015-.264.075-.536.15-.792.234-.189.053-.377.098-.58.159-.287.075-.581.151-.86.227-.023 0-.046 0-.068.015a1.1 1.1 0 0 0 .218-.522c.747.235 2.195-.461 1.856-1.346-.204-.507-1.147-.544-1.697-.333v-.71c0-.212-.076-.295-.257-.363l-1.297-.484c-.384-.129-.882-.28-1.078-.65-.362-.62.4-1.06.241-1.694-.038-.182-.219-.348-.392-.394-.226-.068-.498 0-.694-.09-.166-.084-.136-.28-.143-.47.022-.31-.242-.627-.513-.717-.196-.106-.445-.121-.596-.265-.105-.121-.038-.303.083-.4.407-.288.671.302.98.528.114.114.295.22.46.182.28-.015.559-.348.423-.635a1.3 1.3 0 0 1-.113-.47c0-.188.105-.279.279-.324.203-.046.422.09.445.295 0 .143-.038.325-.076.468-.03.167-.249.394-.113.583.196.287.649.158.611-.197 0-.302-.045-.854.377-.817.483.03.28.719.09.976-.143.196-.27.378-.331.635-.083.295.128.605.437.575.385-.015.717-.333.792-.703.075-.47-.083-.991.053-1.452.053-.204.166-.363.324-.439.332-.144.58.25.31.514-.19.227.143.53.346.31a1.35 1.35 0 0 1 .498-.348c.347-.136.74.129.671.515-.03.166-.166.31-.347.378-.068.022-.113.09-.12.166a.19.19 0 0 0 .173.19c.362.03.958.067.928.528-.053.431-.604.424-.95.348-.347-.053-.438.47-.084.537.22.038.415.03.536.272.143.28-.128.575-.407.583-.347 0-.589-.416-.589-.416a.21.21 0 0 0-.301-.046.214.214 0 0 0-.053.31c.038.06.15.235.173.265.227.287-.075.537-.301.31-.09-.09-.181-.212-.317-.287-.498-.348-1.07.159-.709.673.196.234.46.212.702.227.4 0 .731 0 1.063.15.37.152.792.273 1.237.197 1.229-.242 1.576-1.39 1.372-2.487-.045-.204-.098-.409-.234-.613a.17.17 0 0 0-.135-.075.7.7 0 0 1-.272-.076 1.1 1.1 0 0 1-.535-.62c-.136-.378-.083-.802.158-1.044.06-.06.053-.106.023-.15a.7.7 0 0 1-.09-.326c0-.197.09-.325.21-.325.196 0 .28.264.144.408-.046.053-.068.22.166.22.309 0 .633.325.769.718.09.242.098.499.045.71a.73.73 0 0 1-.317.386c-.135.068-.12.204.038.204 0 0 .174 0 .324-.015.113 1.255 1.245 2.065 2.474 2.027 1.606.03 2.866-1.702 2.315-3.221-.12-.348-.626-.537-.92-.288a.34.34 0 0 0-.136.318c.046.204.257.355.227.574-.03.386-.694 1.55-1.162 1.172-.286-.204.128-.483-.06-.756-.113-.189-.407-.257-.558-.113-.211.151-.317.491-.558.484-.377-.106-.128-.5-.143-.794 0-.31-.378-.454-.626-.484-.272-.03-.49 0-.551-.28-.06-.22.204-.37.392-.438.076-.038.143-.016.226-.06.227-.084.332-.424.136-.613-.143-.144-.347-.129-.498-.053-.075.037-.158.098-.24.106a.22.22 0 0 1-.235-.129c-.022-.174.121-.34.257-.423.271-.182.52-.038.814.037.128.03.325-.045.37-.196.053-.197-.09-.31-.151-.424-.075-.106-.038-.234.083-.264.083-.015.211.015.332.06.61.25 1.169.983 1.915.65.28-.173.31-.56.166-.824-.188-.34-.648-.28-.958-.28-.286 0-.543-.015-.807-.098-.143-.038-.769-.295-.709-.756.023-.151.204-.318.415-.295.227.023.528.325.641.37.242.106.393-.098.377-.264-.015-.136-.06-.257-.098-.363-.068-.212-.173-.582.046-.71.271-.137.595.15.67.423.099.264.46.695.74.363.068-.076.075-.235 0-.326-.09-.128-.28-.226-.31-.385a.72.72 0 0 1 .099-.477c.136-.234.626-.43.83-.242.105.091.165.265.18.439.023.166-.045.325 0 .507.083.37.619.355.679-.023.015-.129 0-.197.015-.318.015-.408.43-.491.709-.325.128.083.166.265.113.424-.06.166-.188.272-.188.468 0 .348.475.379.573.106.083-.234.233-.506.513-.408.173.06.248.19.24.348-.06.688-.859.643-1.304 1.006-.316.242-.49.831-.075 1.066.58.31 1.206-.19 1.516-.658.083-.114.203-.37.354-.446.354-.182.468.363.272.597a.126.126 0 0 0 0 .159.11.11 0 0 0 .158 0c.12-.129.249-.25.385-.303.128-.052.301 0 .4.076.233.227-.016.582-.302.65-.294.099-.573.515-.174.696.196.06.385-.076.468-.234.045-.106.173-.076.18.03 0 .272-.12.703-.369.84a.6.6 0 0 1-.219.052c-.248 0-.392.348-.15.492.128.075.264 0 .347.106q.045.045.022.158c-.045.212-.166.484-.392.53-.158.037-.256 0-.34-.152-.052-.09-.09-.211-.21-.257-.151-.068-.325.03-.37.167-.03.113.03.264.09.378.046.09.068.257 0 .34-.128.166-.573.295-.731.03-.12-.204-.076-.37-.068-.605.038-.363.023-.847-.37-1.013-.452-.174-.784.348-.761.718.18 2.246 3.265 2.715 4.125.628.106-.22.256-.877.347-1.18.053-.181.241-.196.31 0l.323.764c.25.56.724 1.293 1.554 1.384 1.425.181 2.971-.892 3.1-2.367.03-.446-.121-1.134-.694-1.119-.475.045-.52.628-.438.975.023.34.09.87-.241 1.06-.181.06-.43 0-.407-.22 0-.106 0-.257-.12-.333a.305.305 0 0 0-.378.038c-.09.09-.12.181-.158.265-.129.272-.513.022-.566-.212-.068-.22-.045-.56-.226-.771a.4.4 0 0 0-.317-.137c-.234 0-.445-.068-.475-.302-.053-.227.113-.378.332-.439.09-.03.166 0 .264-.037.12-.038.241-.167.226-.31-.023-.295-.355-.326-.558-.265-.12.023-.226.06-.332.03-.143-.06-.211-.234-.113-.355.204-.257.55-.227.867-.242.196 0 .505-.099.505-.356.023-.234-.18-.468-.422-.46-.158 0-.302-.046-.332-.145-.09-.302.287-.46.543-.46.506-.023.762.589 1.177.839.34.242.897.143 1.025-.295.09-.227-.075-.462-.264-.552-.43-.28-1.063-.046-1.44-.386-.083-.09-.083-.242-.03-.378.083-.28.452-.333.716-.174.181.076.362.113.566.09.385-.022.528-.544.211-.77-.196-.167-.483-.174-.618-.401-.189-.257.09-.53.37-.409a.8.8 0 0 1 .361.273c.166.219.445.506.762.332.31-.166.279-.529.068-.748-.151-.16-.136-.273-.128-.378.015-.242.444-.764.678-.757.272 0 .536.386.649.711.03.099.06.28-.045.363a.58.58 0 0 0-.196.53c.06.362.61.476.791.158.129-.242.129-.491.325-.665.18-.204.573-.076.558.212.015.257-.28.423-.302.688-.038.25.196.46.438.43.256.016.52-.28.7-.31.107-.014.242.084.302.197.25.567-.414.635-.829.65-.52.061-1.124.719-1.033 1.195.113.522.694.477.988.167.271-.227.354-.613.58-.847.174-.197.536-.356.747-.159.256.287-.158.454-.271.764-.083.181.052.43.264.43.362.016.708-.4 1.025-.196.264.197 0 .514-.219.628-.045.03-.165.045-.248.136-.09.068-.136.242-.06.34.158.22.391 0 .618.038.12.015.233.09.271.212.12.34 0 1.05-.467.975-.091-.015-.25-.181-.37-.242-.196-.12-.49.046-.498.28 0 .151.068.257.128.348.06.083.136.151.204.227.106.12.045.264-.098.272-.302.023-.445-.227-.61-.461-.235-.288-.71-.016-.506.34.15.212.384.302.377.567 0 .197-.226.31-.422.287-.181-.015-.302-.12-.4-.28a1.27 1.27 0 0 1-.211-.793c.03-.227.037-.477-.136-.658-.452-.492-1.26-.106-1.305.514-.143 1.33 1.162 2.374 2.391 2.488 1.094.09 2.15-.416 2.511-1.505l.227-.658c.045-.144.21-.09.218-.015 0 .612.053 1.255.43 1.784.249.348.679.794 1.705.946.912.136 1.493-.31 1.674-.5a2.5 2.5 0 0 0 .694-1.587c.052-.515-.558-.862-.92-.477-.159.174-.181.454-.181.65-.03.25-.204.507-.438.606-.55.249-1.018-.401-.468-.757.099-.083.212-.166.234-.325a.32.32 0 0 0-.309-.378.5.5 0 0 0-.354.159c-.076.083-.098.166-.174.234a.3.3 0 0 1-.384.015.36.36 0 0 1-.106-.393c.075-.159.249-.196.415-.28a.42.42 0 0 0 .234-.355c.015-.159-.099-.333-.257-.37-.234-.076-.407.09-.596.045-.226-.06-.226-.688-.022-.779.188-.076.15.113.37.227.452.22.693-.4.422-.696-.25-.355-.596-.151-.845.046-.158.105-.173.022-.317-.068a1 1 0 0 0-.15-.091c.037-.076.075-.136.105-.25.181-.718-.837-.99-1.026-.28-.037.129.151.205.211.084.053-.106.136-.174.212-.19.143-.03.309.106.264.28-.03.114-.181.31-.197.303-.248-.046-.505.053-.716.25a1.5 1.5 0 0 0-.234.294.5.5 0 0 0-.264-.476s.581-1.044-.724-1.391c0 0-.015-.22-.15-.462-.166-.302-.37-.469-.483-.521a1.4 1.4 0 0 0-.272-.62c-.324-.409-.701-.522-.874-.553-.015-.143-.068-.415-.287-.612-.475-.431-.988-.302-1.222-.212C26.444.484 25.976 0 25.516 0s-1.033.5-1.274 1.157c-.325-.151-.98-.355-1.35.257-.28.461-.189.9-.113 1.127-.845.098-1.064.952-1.116 1.232-.498.129-.77.613-.74 1.248 0 .159-.067.257-.113.295a.8.8 0 0 1-.346.159c-.121.022-.25.053-.34.053.189-.47.015-.78-.06-.878-.136-.174-.31-.219-.513-.181a.52.52 0 0 0-.377.265c-.053.105-.098.295.03.56.023.052.09.075.143.06a.12.12 0 0 0 .068-.136c-.045-.16 0-.273.09-.303a.17.17 0 0 1 .212.121.56.56 0 0 1-.136.545c-.143.15-.256.037-.505.362-.053-.173-.136-.362-.264-.468a.66.66 0 0 0-.392-.174h-.083q-.09.002-.181.038c-.053.022-.09.045-.136.068 0-.318-.18-.62-.543-.605-.173 0-.271.068-.354.12-.181.114-.272.25-.438.34-.03.016-.045.016-.06 0-.06-.037-.015-.097.038-.12.301-.182.565-.62.565-.877 0-.182 0-.378-.15-.537-.4-.439-.996-.242-1.14.355-.014.06-.113.038-.097-.022a.7.7 0 0 1 .098-.197.72.72 0 0 0 .098-.552c-.09-.416-.581-.552-.935-.446-.257.06-.43.34-.476.582 0-.295-.052-.59-.301-.809-.43-.34-1.079-.098-1.358.333a1 1 0 0 0-.136.65c-.286-.4-.957-.552-1.146.038-.068.242 0 .476.076.696.045.113.083.189.06.219-.03.075-.196-.083-.196-.083s-.483-.47-.95-.16c-.468.296-.37.742-.189 1.014.143.22.392.378.392.378s-.09-.015-.196 0c-.219.03-.392.242-.4.469 0 .181.091.31.151.393-.128-.045-.316-.12-.482-.12a.94.94 0 0 0-.868.521c-.316.635.4 1.074.913.688.053-.023.128-.053.128.023 0 .038-.045.098-.234.136-.226.068-.475.196-.588.43-.18-.324-.452-.551-.739-.627.09-.242 0-.544-.249-.658a.534.534 0 0 0-.633.152c-.181.219-.144.529-.068.77a1.4 1.4 0 0 0-.272.598c0-.59-.603-.998-1.191-.801a1 1 0 0 0-.181.068c-.098-.439-.626-.719-1.033-.492-.408.204-.543.643-.566 1.067a.9.9 0 0 0-.158-.44.68.68 0 0 0-.905-.067s-.023-.06-.038-.09c-.241-.47-.905-.545-1.252-.152-.271.318-.15.741 0 1.066.015.023 0 .038 0 .053 0 .053-.143.121-.204.09-.233-.158-.407-.392-.656-.597C.78 7.841.132 8.068.02 8.582c-.099.348.21.666.505.734.264.106.626.181.61.522-.022.28.038.695.355.816.211.106.415.106.626.114.098 0 .219.03.234.12.045.326-.287.613-.332.923-.189.68.294 1.316.89 1.558.105.045.965.393 1.395.582a.2.2 0 0 1 .12.19c0 .264 0 .839-.014.877-.106.113-.287.355-.25.68.023.227.212.386.257.431-.166.673-.49.945-1.04 1.059-.34.068-.68.128-1.011.181-.12.015-.226.144-.219.257.03.522-.203.847-.58 1.172a7 7 0 0 1-.483.439c-.219.181-.566.386-.852.582a.4.4 0 0 0-.113.545c.708 1.134 2.94 4.937 3.476 9.058.438 3.335.355 9.09.732 15.078.12 1.83.513 3.577 1.048 5.301.535 1.701 1.267 3.35 2.285 4.81a14.7 14.7 0 0 0 3.808 3.758c1.456.99 3.07 1.739 4.729 2.306 1.66.575 3.356.937 5.068 1.255.83.159 1.667.325 2.466.605q.215.078.43.166c.18.053 1.033.545 1.146.666.136.113.272.227.4.355l.136.159a.336.336 0 0 0 .512 0l.136-.159c.128-.12.257-.242.4-.355.113-.121.965-.613 1.146-.666q.215-.088.43-.166c.8-.28 1.637-.454 2.466-.605 1.72-.318 3.424-.688 5.068-1.255 1.66-.575 3.273-1.316 4.728-2.306a14.4 14.4 0 0 0 3.809-3.759c1.01-1.467 1.757-3.115 2.285-4.809.543-1.724.935-3.47 1.048-5.3.385-5.997.302-11.751.732-15.079.543-4.12 2.768-7.917 3.477-9.058a.407.407 0 0 0-.114-.545l.076-.128zm-8.83-11.539c-.408 1.082-1.871.794-1.426-.416.43-1.005 1.802-.748 1.425.416m4.449.409c.03.272-.166.332-.362.272-.204-.053-.37-.31-.377-.537 0-.114.037-.19.128-.333a.8.8 0 0 0 .12-.423.8.8 0 0 0 .151.363c.159.196.332.385.34.65zM30.99 6.117a1.1 1.1 0 0 1 .317-.62.63.63 0 0 1 .43-.181h.09c.182.03.332.151.438.333.105.196.143.438.098.688a1.1 1.1 0 0 1-.317.62c-.158.143-.34.204-.52.174-.377-.06-.619-.522-.536-1.021v.015zm-11.259-.37c.392-.068.679.34.754.794.098.582-.15.945-.528.998-.347.053-.701-.272-.761-.802-.068-.506.18-.93.543-.99zM4.468 8.417v.203c0 .235.068.462.03.688a.57.57 0 0 1-.347.416c-.46.167-.143-.408-.015-.574.159-.205.287-.47.324-.726zm41.177 6.147c.301-.711 1.651-.159 1.357.56-.249.612-1.621.052-1.357-.56m-39.156.484c.166.68-1.591 1.126-1.75.446-.18-.787 1.584-1.112 1.75-.446m42.006 10.911c-.95 2.874-1.086 6.753-1.1 9.838-.016 2.972-.43 8.59-.566 9.528a26 26 0 0 1-.506 2.616 23 23 0 0 1-.776 2.533 17 17 0 0 1-1.079 2.299 14.3 14.3 0 0 1-1.448 2.11 14 14 0 0 1-1.855 1.807 15 15 0 0 1-2.074 1.384c-.377.211-.747.408-1.139.597-.37.174-.739.34-1.123.499-1.622.65-3.319 1.104-5.023 1.437-1.674.325-3.439.537-4.932 1.436l-.702.484c-.196-.12-.49-.348-.709-.484-1.485-.9-3.257-1.111-4.932-1.436-1.711-.333-3.408-.787-5.022-1.437a15 15 0 0 1-1.124-.5 23 23 0 0 1-1.139-.596 16 16 0 0 1-2.074-1.384 13 13 0 0 1-1.855-1.807 13.4 13.4 0 0 1-1.448-2.11 16 16 0 0 1-1.078-2.299 20 20 0 0 1-.777-2.533 28 28 0 0 1-.505-2.616c-.136-.938-.55-6.556-.566-9.528-.015-3.078-.15-6.957-1.1-9.838-.83-2.495-2.294-5.316-2.791-5.989l.075-.053c.438-.317.89-.627 1.282-.99a1.8 1.8 0 0 0 .377-.545c.068-.15.09-.28.098-.416.43-.083 1.38-.287 1.803-.408.37-.106.746-.196 1.116-.302.415-.121.814-.25 1.23-.37.557-.167 1.115-.326 1.666-.507.528-.167 1.056-.31 1.584-.462a93 93 0 0 1 2.85-.733 62 62 0 0 1 1.976-.439c.166-.03.332-.068.505-.098.43-.083.852-.151 1.275-.227.392-.068.784-.136 1.176-.189.325-.045.649-.083.966-.129q.666-.09 1.342-.158c.347-.038.701-.06 1.048-.091.423-.038.837-.068 1.26-.098.316-.023.633-.03.942-.046l1.207-.045c.392 0 .777-.015 1.169-.015h.566c.444 0 .874 0 1.32.015.158 0 .316.015.474.023a55 55 0 0 1 10.837 1.49c1.562.377 3.108.8 4.654 1.21 1.576.415 3.16.793 4.758 1.118.28.053.566.099.838.144v.068c-.03.25 0 .408.098.643.09.211.21.385.377.544.392.37.844.68 1.282.99.022.016.052.039.075.054-.498.665-1.968 3.493-2.79 5.988z" style="--darkreader-inline-fill:var(--darkreader-background-14006e, #100058)"/><path fill="#14006E" d="M16.338 28.371h-1.04s.113.265.173.356c.528.764 1.116.325.86-.356zm7.934-10.919c-.106-.022-.196 0-.256.076-.083.098-.083.25-.038.355.03.068.022.084 0 .129a.35.35 0 0 0-.045.181h.226c0-.053.09-.158.15-.227.106-.128.204-.242.167-.37-.023-.076-.09-.121-.197-.151zm3.71.885c.37.083.626-.31.792-.567 0-.166.038-.416-.03-.575-.136-.317-.468-.363-.762-.355h-.701s-.053-.023-.053-.03c0-.008-.015-.038 0-.069l.053-.075-.173-.144a.8.8 0 0 1-.257.19 1 1 0 0 1-.279.067h-.083v.227h.128c.023.099.068.272.129.53a.23.23 0 0 1-.038.204c-.098.12-.324.189-.49.189v.227h.912l.068-.205s-.204-.166-.143-.438a.6.6 0 0 1 .098-.204.5.5 0 0 1 .203-.129c.098-.03.196-.03.295-.03v.25h-.355v.067a.422.422 0 1 0 .709-.31h.075c.106 0 .257 0 .332.084.098.075.06.242.068.43q-.088.162-.188.288c-.197.242-.43.045-.71.09a.3.3 0 0 0-.248.16.31.31 0 0 0 0 .294l.166-.068c-.06-.287.332-.12.513-.098h-.038z" style="--darkreader-inline-fill:var(--darkreader-text-14006e, #967fff)"/><path fill="#14006E" d="M46.602 18.42c-.844.174-1.485.976-2.247 1.172-.52.114-1.063.038-1.554-.166-.528-.257-1.229-.31-1.794-.015-.483.257-.815.673-1.034 1.15a.9.9 0 0 1-.18-.265c-.166-.371.105-.681.437-.832.203-.129.384-.295.528-.5.626-.876.098-2.049-.83-2.404l-.18.31c.452.355.173 1.081-.265 1.33-.128.076-.317.107-.513.152.106-.181.174-.378.174-.62.022-.242-.015-.469-.045-.688l-.355.03c-.03.363-.505.53-.792.726-.95.492-1.546 1.134-1.191 2.276.233.862.995 1.46 1.191 2.307.46 2.336-2.956 3.916-2.76 7.115.03 1.618.724 2.79 1.667 3.78 1.795 1.899 4.464 3.131 5.022 5.506.242 1.474-1.146 2.087-2.33 1.444-.754-.386-1.373-.998-1.976-1.61-.467-.492-.95-.991-1.599-1.24a2.4 2.4 0 0 0-.52-.144c-.083-1.309-1.192-2.2-1.991-3.13-.271-.319-.513-.644-.671-1.007-.181-.46-.257-.968-.106-1.414.287-.93 1.38-1.285 1.667-2.11.437-1.262-.249-1.95-.249-1.95l-.264.189s.083.635-.445.922c-.43.242-.709-.053-.709-.053.71-.09 1.17-.922.822-1.557l-.34.098c0 .423-.497.272-.52-.151-.022-.348.287-.65.596-.81.913.076 1.546-.566 2.006-1.285.174-.287.558-.098.362.204 0 0 .129.152.129.144.618-.454.512-1.376-.347-1.384-.581-.015-.95.59-1.524.507-.15-.015-.264-.083-.316-.197.95-.204 1.153-.854 1.153-.854l-.12-.174s-.068.015-.106.015a.46.46 0 0 1-.46-.461c0-.257.204-.462.46-.462.324-.015.58.227.98.227 1.124 0 1.305-1.27 1.305-1.27l-.256-.166c-.37.302-.71.363-1.252-.167-.535-.53-1.086-.514-1.086-.514.377-.212.762-.151.762-.151l.098-.272c-.257-.25-.656-.356-.656-.356.06-.03.12-.06.18-.113.566-.5.129-1.376-.46-1.626l-.203.272a.2.2 0 0 1 0 .28c-.181.182-.596.129-.754-.083a.8.8 0 0 1-.151-.295c.196-.09.385-.197.528-.37.354-.401.15-.953.513-1.294.135-.105.377-.075.558 0l.143-.181c-.407-.492-1.056-.665-1.576-.235-.272.167-.43.56-.754.568-.423-.03-.762-.386-1.184-.5.098-.241.09-.521-.06-.733a1 1 0 0 0-.242-.257l-.234.272c.106.151-.083.31-.249.204l-.286-.143a1.7 1.7 0 0 0-.762-.212.8.8 0 0 0 .068-.204c.075-.303-.12-.65-.392-.771l-.264.173c0 .106-.015.167-.06.205-.196.128-.506.068-.74.25a.5.5 0 0 0-.188.249c-.023 0-.045-.016-.068-.023-.294-.053-.58.129-.822.212-.483.211-1.063.098-1.53.4-.25.16-.348.47-.438.711-.189.424-.664.25-1.033.318-.476.045-.755.438-.664.892a.5.5 0 0 1-.083.386c-.075.128-.226.28-.272.506-.082.613.332 1.142.868 1.377.173.136.354.227.543.287l.49.461h.113l.415-.378.445.393h.196l.452-.453s.4-.046.558.037c.287.144.181.825.181.825-1.56-.711-2.556.87-3.793.189-.445-.25-.468-.877-.898-1.127-.603-.348-1.206.19-1.191.771.015.78.55 1.286 1.222 1.452.663.19 1.342.242 2.013.098.671-.15 1.23-.514 1.84-.529.272-.015.536.038.777.144-.309 0-.58.09-.769.212-.347.211-.634.204-.77.037l-.203.068v.545c-.37.083-.716.265-.701.68a.565.565 0 0 0 .565.507h.46c-.24.287-.822.257-1.108.045-.483-.37-.98-1.013-1.69-.62l.076.25c.158-.023.294.03.347.136.053.113 0 .257-.09.28-.144.038-.332-.06-.49-.068-.318-.046-.597.075-.868.189-.226.075-.513.128-.724.075-.28-.022-.294-.476-.03-.484l.083-.25c-.25-.173-.506-.15-.755-.044-.467.226-.573.884-.271 1.285-.354-.015-.724.023-1.018-.174-.128-.083-.264-.159-.407-.242-.943-.56-2.014-1.111-2.851-1.732-2.157-1.709.158-1.618-.377-3.206-.128-.378-.377-.756-.377-.756s.49-.983-.143-1.822c-.257-.333-.807-.658-1.9-.393l.082.385a.72.72 0 0 1 .77.325c.12.19.188.492 0 .749l-.091.136s-.046.06-.06.09a1.3 1.3 0 0 0-.355-.052c-.505-.03-.965.522-.807.998h-.603c-.098-.257-.407-.491-.619-.567-.233-.09-.475-.06-.709-.098-.21-.06-.271-.258-.46-.416-.203-.197-.52-.19-.761-.114-.966-.718-2.466-.665-2.685.756l.211.076c.317-.438.988-.325 1.237.129-.053.264-.249.62-.249.915-.015 1.24 1.116 1.83 2.187 1.618 0 .22-.173.363-.422.385-.898.069-1.501.205-1.999.999-.12.166-.286.491-.286.491s-.242-.038-.483 0c-.347.06-.633.295-.754.552-.475.953.256 1.86 1.237 1.875l.037-.227c-.414-.12-.739-.892-.196-.952a.8.8 0 0 0 .181.22c.332.286.807.15 1.064-.145.158-.15.279-.12.452 0 .513.378 1.131.537 1.803.25a3 3 0 0 1 .43-.151c-.22.408.12.862.452 1.119.083.159.015.355-.196.408a.342.342 0 0 1-.438-.28 1 1 0 0 1-.022-.227h-.226c-.06 1.452 1.689 1.793 2.292.832.12.235.34.416.588.507-.037.469.136.922.52 1.217.28.235.506.568.506.93 0 .038 0 .121-.045.205-.083.143-.242.166-.264.174 0 0 .211.06.528.015a.6.6 0 0 0 .203-.046s.076-.038.114-.06c-.016-.03-.038-.068-.053-.106-.015-.046-.03-.076-.038-.114 0-.037-.023-.083-.023-.12 0 0-.045-.477-.316-.938-.189-.37-.347-.756-.151-1.157l-.143-.083c-.197.272-.22.59-.174.907-.015-.015-.03-.023-.038-.038-.218-.227-.286-.597-.233-.892.098-.476.467-.975.143-1.467l-.159.076c.197.423-.083.748-.248 1.126a.75.75 0 0 1-.483-.688c0-.34-.106-.703-.415-.87-.377-.249-.935-.113-1.146.265-.136-.128-.241-.28-.234-.438 0-.174.226-.288.4-.212a.3.3 0 0 1 .068.038l.233-.288s-.098-.098-.37-.166c-.572-.136-1.19.37-1.817.37-.527 0-.935-.544-1.312-.529-.188 0-.286.167-.34.197-.218.204-.497.348-.678.076.302-.06.37-.258.392-.462h4.261c.483.363 1.086.56 1.69.537.037 0 .075-.03.075-.068a.07.07 0 0 0-.068-.068c-.038 0-.075 0-.12-.015a2.4 2.4 0 0 1-1.004-.363 2.5 2.5 0 0 1-.822-.855c-.015-.03 0-.075.023-.09s.068-.015.09.015c.22.28.476.522.777.68.302.16.641.242.965.242h3.311c.166.099.332.19.483.273-.513.068-.996.34-1.252.778-.053.106.106.197.166.091.37-.567 1.297-.726 1.863-.423.309.181.618.348.724.37q.102.024.203.038c-.392.303-.58.84-.822 1.52-.166.439-.392.892-.769.847-.415-.045-.513-.567-.226-.749l-.181-.31a1.8 1.8 0 0 0-.468.37c-.377.371-.49.93-.362 1.438.053.25.053.521-.075.733a.63.63 0 0 1-.241.227.6.6 0 0 1-.28.068c-.128 0-.271-.038-.392-.09a.9.9 0 0 1-.264-.228c-.022.273.038.514.294.689-.271.18-.83.355-1.35.264.702.431 1.826.37 2.753.015 1.275-.491 2.55-1.323 3.975-1.353h.452c-.385.537-.52 1.126-.43 1.8.06.604.257 1.33-.15 1.882l-.182.212c-.083.09-.21-.045-.12-.121.392-.386.407-.802.324-1.248a1.2 1.2 0 0 1-.204.431c-.03.03-.075.038-.113 0-.03-.03-.037-.075-.015-.106.12-.158.166-.385.181-.605 0-.189 0-.378-.045-.567-.083-.4-.113-.816.06-1.255-1.704.129-3.326 1.414-5.022 1.535-1.584.106-2.127-.854-2.218-1.059l-.21.122c.286 1.194 1.394 1.55 1.892 1.55a2 2 0 0 0-.384.174c-.295.166-.52.416-.71.65 0 0-.43.522-.527.635h-.159c-.279 0-.588.129-.739.37-.105.16-.384.326-.565.326-1.222.022-.755-.885-1.494-1.558-.21-.197-.588-.25-.882-.25-.136-.128-.286-.257-.445-.325-1.056-.484-2.164.356-1.983 1.482l.037.174.22-.06s-.152-.552.286-.666c.414-.105.61.144.656.227.075.121.12.28.12.28s-.354.045-.362.408v.636c0 .635.807.975 1.479.71.015 0 .03 0 .068.016.226.06.324.362.128.438-.287.121-.664.045-1.003 0-.513-.053-1.071.19-1.29.673a.7.7 0 0 0-.55.083c-.22.121-.31.393-.378.598l-.377 1.134c-.09.317-.196.628-.264.968-.256 1.3 1.086 2.26 2.044 1.172l-.113-.227c-.679.045-.731-.56-.483-1.013.25.106.483.143.687.143.233 0 .43-.045.58-.105.468-.182.785-.545.89-.802.076-.166.098-.355.076-.537.279.113.595.144.874.083 0 0-.497.394-.58.998-.136 1.074.61 1.172 1.033 1.18 0 0 .038.272.083.386.188.536.513.99 1.312.99.702 0 1.003-.59 1.018-.612l-.173-.19s-.257.107-.415.023c-.15-.083-.15-.529-.15-.529s.565-.333.565-.779c0-.287-.113-.605-.211-.794-.068-.136-.121-.227-.151-.287 0-.06 0-.114-.023-.174.317-.038.58-.227.754-.484a.68.68 0 0 0 .664.537h.92c.15 0 .272.106.31.242.022.197-.076.43-.287.469h-.106l-.053.219q.216.068.408.068c.392 0 .852-.37.897-.862a1.13 1.13 0 0 0-.249-.771s.174-.106.287-.265c.15.212.535.726 1.576.756l.06-.234c-.528-.295-.679-.802-.603-1.172.09.378.241.627.58.847.159.098.348.166.574.174l.113-.129-.068-.499c.686.855 1.802.99 2.632.514.535.28 1.207.22 1.667-.25.218.25.512.44.837.522.671.174 1.418.076 1.976-.355.037-.03.075-.068.113-.098.226-.03.482.083.716.242.37.219.611.544 1.01.74.257.13.529.167.8.167.098.333.385.567.701.71 0 0-.12.349-.527.41-.423.06-.988-.069-1.222-.069-.498 0-1.064.431-1.064.431s-.678-.877-2.247-.03c-.633.34-1.184-.144-1.938-.114-.513 0-.958.34-1.252.711-.543.666-.792 1.384-1.953 1.384-.619 0-.92-.567-.468-.953l-.12-.272c-.687.174-1.245.643-1.35 1.338-.046.34.052.719.271.915-.188.265-.286.75-.037 1.06.09.12.21.21.339.279l.226-.272c-.204-.174-.038-.424.181-.492.272-.09.566 0 .837.076.408.12.83.098 1.245.022a1.06 1.06 0 0 0-.121.681c-.92.567-2.006 1.096-3.085 1.013-.83-.053-1.025-.695-1.267-1.383a1.04 1.04 0 0 0-1.153-.719c-.234-.181-.468-.43-.785-.575-1.07-.544-2.549.537-1.938 1.732l.219-.045c.045-.514.724-.613 1.093-.356-.558.636-.248 1.671.687 1.71.173 0 .354 0 .512-.069a.9.9 0 0 0 .129.31s-.264.038-.46.197c-.189.144-.37.242-.438.257-.332.083-.694-.106-1.048-.129-.649-.068-1.161.424-1.327 1.014h-.347c-1.569 0-2.33 1.754-1.01 2.752l.218-.159a.62.62 0 0 1 .415-.809c.264-.083.535 0 .739.174.15.575.67.84 1.357.84s1.049-.212 1.456-.613c.279-.28.49-.318.49-.318s-.55.439-.641 1.354c-.053.56.204 1.127.716 1.293.046.68.438 1.376 1.094 1.61.679.265 1.5.046 1.93-.551l-.173-.212c-.709.348-.958-.31-.928-.794.559 0 .845-.295 1.018-.855a3.03 3.03 0 0 0-.256-2.397c.143.235.852 1.309 1.704 1.407.52 0 .838.159.838.416a.4.4 0 0 1-.129.28.45.45 0 0 1-.316.136v.363c1.644 0 1.598-1.717 1.598-1.717s.083.114.22.333c.293.484 1.032.809 1.364.355a.88.88 0 0 0 .558.393.77.77 0 0 0 .71-.219c.678.537 1.779.514 2.33-.166 1.078.56 2.232.053 2.277-1.27l-.362-.076c-.158.325-.694.363-.845.06-.068-.12-.015-.287.121-.453.302-.371.709-.999.294-1.46-.18-.204-.407-.393-.55-.575-.566-.71-.099-1.67.678-1.996.852-.4 1.765-.37 2.685-.59-.347.462-.739.908-.867 1.482-.098.401 0 .855.219 1.203.18.295.475.514.588.816.12.356-.264.47-.52.265-.687-.499-1.682-.06-1.728.741l.355.076c.053-.235.218-.28.475-.136.603.287.95.998 1.727 1.036.324 0 .61-.16.807-.394.226.28.347.605.241.908-.286.84-1.32 1.187-1.96 1.739-.332.31-.596.665-.717 1.104-.219 0-.43-.03-.58-.106-.182-.083-.302-.34-.46-.605-.34-.71-1.049-.764-1.637-.37-.37-.333-.935-.424-1.463-.212-.656.264-1.003.885-.943 1.686l.362-.015c0-.197.068-.333.219-.416.196-.106.49-.098.746 0-.362.469-.309 1.195.166 1.58.453.394 1.048.265 1.569.16v.014c.015.379-.294.711-.664.711h-.452c-.596-.06-1.101.325-1.275.877-.958.03-1.674.386-1.96.991-.295.62-.121 1.391.474 2.132l.317-.128c-.03-.424.045-.719.226-.923.181-.189.468-.295.883-.317.136.832 1.056 1.263 1.863 1.111a.87.87 0 0 0 .64-.491 1.5 1.5 0 0 0 .121-.915c0-.038.015-.076.053-.083.045-.015.09.015.106.053.226.627-.09 1.202-.09 1.202.859-.182.95-.65 1.553-1.021.256-.159.505-.159.505-.159s-.241.197-.37.507c-.392.968.378 1.399.378 1.399s-.415.801.573 1.429c.415.265.905.31.905.31l.166-.31s-.196-.272-.22-.666c-.022-.355.227-.514.227-.514.815-.143.717-.794 1.071-1.005.74-.424.83-1.339.61-2.102a2.4 2.4 0 0 1-.708.498c-.038.023-.09 0-.113-.037-.023-.038 0-.091.03-.106.271-.159.498-.386.694-.62.166-.19.294-.386.34-.514.218.128.384.204.648.257.316.068.671.037.958-.091.512-.181.95-.771 1.387-.764.287 0 .52.114.656.295.189.242.098.484-.075.68l.143.175c.483-.258 1.003-.772.83-1.377a1.34 1.34 0 0 0-.407-.597c.392-.03.754-.197.935-.582.701.06 1.267-.545 1.372-1.4l.015-.12s1.003-.053 1.592-.779c.264-.333.497-1.066.648-1.346.143-.28.392-.295.588-.272.543.053.566.748.566.748l.211.076s.724-1.24.06-1.883c-.324-.31-.588-.317-.588-.317s.996-.129 1.614-.704c.543-.499.754-1.504.113-2.034-.294-.242-.724-.212-.724-.212v.258c.475.03.31.627-.022.756-.89.378-1.758-.212-2.678-.356-1.523-.25-2.632 1.301-3.604-.56-.212-.385-.28-.793-.166-1.209.06-.25.203-.537.279-.817 1.357 1.634 3.363 1.944 5.331.893.89-.545 2.49-1.195 2.844.25l.256-.023c0-.25-.023-.5-.09-.742-.174-.68-.792-1.119-1.471-1.21a3.7 3.7 0 0 0 .4-1.897c0-.265-.068-.658.226-.772.234-.106.513.046.505.325l.355.06c.15-.468.052-1.02-.332-1.3-.475-.347-1.01-.166-1.01-.166s.233-.439.233-.696c0-.204-.06-.393-.15-.56h-.242s-.045.417-.543.417c-.807 0-.882-1.097-.106-1.09.325 0 .438.114.71.107.376 0 .806-.19.987-.567.158-.356.513-.711.77-.227l.331-.136c-.249-1.09-1.161-1.331-1.99-.658-.242.227-.46.219-.777.181-.385-.06-.815-.12-1.177-.03q-.17.045-.317.136a.82.82 0 0 0-.384.507l.339.128c.143-.393.475-.499.867-.469.536.03 1.23.265 1.682-.189.219-.174.505-.325.762-.31a.58.58 0 0 1 .392.212c-.324 0-.649.272-.807.658-.136.264-.347.438-.664.43-.294 0-.377-.097-.769-.097-.452 0-.822.31-.814.718 0 .393.143.643.392.764h-1.358c-1.093-1.634-2.858-2.632-4.23-3.985h1.553c.37.227.777.378 1.2.446.097.015.127-.136.03-.159a3.3 3.3 0 0 1-.702-.287h1.516c-.226.242-.219.65-.068.915.166.325.498.521.671.779.068-.084.151-.174.272-.25a1.5 1.5 0 0 1 .558-.19 2.4 2.4 0 0 1 .807.024c.045 0 .083-.023.098-.06.015-.046-.015-.092-.06-.107-.536-.136-1.117-.181-1.615.099-.256-.25-.543-.47-.46-.847.053-.22.362-.333.755-.333 1.523 0 2.488-.121 3.378-1.543.128-.204.272-.302.43-.31-.023-.03-.045-.045-.075-.068-.129-.075-.294-.045-.43 0-.566.182-.837.855-1.41 1.067a2.1 2.1 0 0 1-1.019.166.08.08 0 0 1-.075-.09c0-.046.038-.077.083-.077.264-.022.52-.083.754-.189-.271 0-.558-.052-.837-.113-.92-.174-1.003.333-1.388.771h-1.056c.581-.038.762-.544 1.147-.953.505-.574 1.425-.264 1.983-.105.37.105.679.022.95-.227.264-.28.566-.537.966-.582a.74.74 0 0 1 .37.037c.278.114.43.447.331.726l.294.19c.264-.515.196-.991-.15-1.316-.551-.515-1.366-.273-1.84.166a1.8 1.8 0 0 1-1.524.454c-.603-.091-1.267-.333-1.84.022-.475.25-.875.772-1.448.575-.468-.197-.649-.824-.422-1.278.226-.514.769-.71 1.312-.756.784-.114 1.553.212 2.338.204.882 0 1.5-.748 2.043-1.338.475-.583 1.207-.953 1.614-.167l.347-.068c-.03-1.142-1.139-1.67-2.15-1.46-.482.092-.897.364-1.251.644-.355.28-.686.597-1.04.635-.43.045-.74-.212-1.094-.446-.883-.628-2.097-.37-2.859.325-.316.31-.558.817-.595.885-.038.083-.129.098-.189.015a2.4 2.4 0 0 1-.332-.734 3.1 3.1 0 0 1-.09-1.081c.015-.098-.136-.129-.159-.03-.067.25-.09.506-.082.756.022.552.21 1.217.497 1.731a.11.11 0 0 1-.03.144.102.102 0 0 1-.15-.03 3.9 3.9 0 0 1-.657-1.535h-.958c0-.046.015-.091.03-.129.204-.816.664-1.558 1.154-2.26.423-.598.913-1.218 1.222-1.906h1.094a2.24 2.24 0 0 0-.702.733c-.015.023 0 .068.015.083s.06 0 .076-.015c.196-.25.422-.461.686-.597s.566-.212.845-.212h1.1c.423 0 .74.507 1.2.605.075.015.098-.098.03-.12-.234-.092-.43-.31-.649-.492h.86c.242.862 1.358 1.3 2.127.877a.6.6 0 0 0 .158-.114.93.93 0 0 1-.309.424c-1.191.673-2.466-.514-3.703-.62-1.154-.114-1.93.355-2.783.953a3.4 3.4 0 0 0-.95 1.194c-.053.099.106.182.158.084.234-.44.566-.772.943-1.052-.437.65-.679 1.49-.716 2.322 0 .166.226.242.316.09.453-.763 1.433-1.088 2.293-1.05.053 0 .09-.03.098-.084 0-.053-.03-.098-.083-.106a3.16 3.16 0 0 0-1.425.174 2.5 2.5 0 0 0-.784.454c.173-1.059.686-2.057 1.583-2.458.362-.166.815-.219 1.312-.166.898.099 1.63.62 2.534.771.717.144 1.622-.03 1.87-.839q.126-.361.091-.733l-.347-.053c-.332.877-1.636.748-1.998 0 .875-.046 1.47-.325 1.938-.756a3 3 0 0 1-.958-.326c1.17-.196 1.765-.756 2.044-1.255.068-.128.143-.272.211-.408q-.135.045-.271.113c-.687.348-1.418.817-2.233.84a2.8 2.8 0 0 1-1.191-.235l.083-.212c.709.265 1.463.144 2.126-.211.52-.28.988-.711 1.607-.855.188-.045.392-.038.596.015a.65.65 0 0 1 .256.136.34.34 0 0 1 .113.273.545.545 0 0 0 .226-.605c-.113-.409-.573-.522-.95-.514-.12 0-.219-.091-.219-.205s.106-.204.219-.196c.52 0 1.146.264 1.26.84.128.596-.423 1.133-.996.967l-.128.333c.588.34 1.372.174 1.757-.386.347-.544.407-1.172.286-1.792-.196-.968-1.266-1.527-2.187-1.285v-.061zM12.07 26.262c.075-.22-.068-.454-.068-.454s.173-.393.633-.318c.408.06.415.575.415.62 0 .401-.422.847-.852.847-.596 0-.852-.34-.852-.34.309.121.626-.038.731-.355zm1.629-9.437c1.93-.038 1.327 2.442.633 2.094-.354-.181-.15-.461-.105-.529.588-1.006-.144-1.407-.528-1.565m.045 1.883c0 .06.023.113.045.166.076.22.25.348.445.4h-.912c0 .069.037.144.083.212.083.144.21.265.354.37l-.075.137c-.28-.121-.581-.363-.671-.673-.151-.507.294-.764.731-.605zm-6.486-.333c.174-.242.423-.416.732-.431.377-.03 1.056.151 1.357.484a.8.8 0 0 1 .121.189c.106.25-.106.506-.354.514-.181 0-.393-.076-.498-.25-.287-.491-.89-.71-1.365-.514zm1.6 2.42c-.242-.197-.438-.507-.408-.825h.166c.053.492.656.802 1.093.719l.06.446c-.354.015-.655-.129-.912-.333zm.799-1.535s.052-.053.083-.091a.72.72 0 0 0 .09-.673c-.015-.03-.023-.068-.038-.098.083 0 .166 0 .234.075.06.053.128.151.219.25.136.159.384.28.603.28.256 0 .618.037.747.264H9.657zm-2.27 5.134c-.498.038-.664.325-.589.71a.9.9 0 0 0 .242.44c-.747-.228-.988-1.657.06-1.838.513-.083.709.12.747.31.037.151.022.34-.468.378zm3.868-1.437-.135-.038c.068-.317-.023-.657-.257-.854a1 1 0 0 1-.203.287 1.06 1.06 0 0 1-.445.235c-.076.015-.151.022-.22.038.024.015.046.022.061.037.196.16.325.378.392.605 0 .038 0 .076-.045.083s-.068 0-.083-.045c-.105-.325-.377-.582-.709-.635a1 1 0 0 1 .302.378.67.67 0 0 1 .068.348c0 .038-.038.068-.083.06a.063.063 0 0 1-.06-.075c-.03-.303-.362-.56-.664-.605.166.136.286.34.279.544 0 .068-.113.076-.128 0v-.038c-.076-.234-.362-.499-.604-.385-.226.128-.422.325-.588.658-.083.166-.34.045-.249-.129 0 0 0-.015.015-.023q.113-.238.272-.43.135-.17.294-.28c.807-.598 1.855-.106 2.127-.915a.186.186 0 0 1 .233-.121c.227.068.415.385.476.605.067.241.037.483-.03.695l-.023.015zm2.406.204c-.038.136-.09.273-.188.424-.046.075-.151.023-.136-.053.09-.62-.77-1.104-1.282-1.165a.176.176 0 0 1-.174-.174c0-.105.098-.181.204-.166.55.136 1.003.5 1.274.983a.8.8 0 0 1 .076.318.8.8 0 0 0 .06-.28c0-.53-.482-.847-.867-1.157-.28-.22-.634-.446-.898-.718a.68.68 0 0 1-.196.469c-.218.241-.52-.046-.301-.22a.576.576 0 0 0 .188-.673 1.15 1.15 0 0 1-.135-.582c.015-.227.362-.204.346.023-.015.287.151.567.393.794.437.476 1.297.983 1.568 1.625v-.03c0-.885-.852-1.316-1.327-1.974-.113-.15-.354-.71 0-.733a.17.17 0 0 1 .166.181c.037.575.784.983 1.07 1.513.325.469.31 1.05.174 1.588zm1.968.197a.204.204 0 0 1-.316.038.96.96 0 0 0-.423-.25.94.94 0 0 0-.52.015h-.023c-.067 0-.135-.075-.075-.136.332-.385.113-.945-.106-1.346a4.7 4.7 0 0 0-.95-1.164.193.193 0 0 1-.022-.272c.075-.084.203-.091.278-.016.325.326.868.552 1.252.22l.098.098c-.226.257-.55.318-.86.265.174.234.318.476.446.733.196.416.362.968.128 1.4a1.18 1.18 0 0 1 1.003.12.2.2 0 0 1 .075.28v.015zm18.862-2.11c.362.129.445.227.709.484.03.03.03.083 0 .121a.08.08 0 0 1-.114 0c-.279-.22-.346-.28-.67-.363-.717-.136-.974.507-1.735.265a1 1 0 0 1-.25-.113c.106.521.423.824.981.846v.167c-1.621.068-1.161-1.505-1.878-2.246-.09-.098-.158-.144-.18-.159 0 0 .324-.476.331-.476.083.068.143.113.257.257.18.234.279.507.347.786.422 1.263 1.304.121 2.194.431zM30.599 18.7a1.36 1.36 0 0 0-.324-.688l.09-.09v-.114c0-.37.302-.666.664-.666.12 0 .234.053.317.136l.596.605v.522a.26.26 0 0 1-.144.235l-.196.098-.075.12v.273a.474.474 0 0 1-.475.476h-.098c.105-.196.173-.408.188-.62h.136v-.128c0-.22.181-.401.4-.401h.128v-.363l-.619-.31v-.431h-.128c-.12 0-.264.015-.37.129-.09.105-.127.257-.12.476.053.076.106.151.143.227a1.31 1.31 0 0 1-.218 1.55c-.106.113-.234.22-.392.31l-.099-.144c.355-.287.453-.491.52-.65a1 1 0 0 0 .076-.567zm.242 1.61.113.122c-.287.31-.785.34-1.139.15.407.349.792.704 1.38.296.09-.06.181.083.09.143-.354.265-.663.28-.95.182.687.779 1.23 1.83 3.032 1.898v.234c-2.753.03-2.828-2.367-4.359-2.518.03-.295 0-.612-.098-.907.392.015.679.333 1.003.476.317.174.664.182.935-.06zm-5.966.152-.301-.28c.196.023.384.03.558.03h.022l-.279.257zm.996 0-.37-.325a.34.34 0 0 1 .347-.227c.166 0 .317.06.392.189zm.46 1.195c-.679 0-1.275.363-1.9.506a5 5 0 0 1-.71.083c-.754.046-1.568-.491-1.583-1.3 0-.099-.151-.099-.151 0-.023.469.196.877.535 1.172-.256-.09-.49-.22-.686-.416a1.2 1.2 0 0 1-.302-.794c.015-.703.792-.885 1.094-.25.105.288.264.56.468.734.301.257.693.317 1.116.302.55-.015 1.274-.438 1.915-.453.611-.046 1.154.264 1.607.642q.092.205.128.431c-.4-.423-.95-.68-1.531-.657m1.56-1.286h-.504v-.257h.505zm0 .242v.257h-.504v-.257zm-.022 2.208v.144h-.505v-.257h.415zm-1.772-.144h.37v.19h-.37v-.197zm-.468 0h.28v.212h-.083c-.06.015-.129.023-.189.03v-.242zm-4.208 9.838c.55-.567.038-1.353.106-2.057.015-.393.143-.778.34-1.111.112-.212.263-.393.414-.575.31-.355.37-.945.271-1.346l-.037-.143c-.038-.114-.204-.076-.189.045.038.393-.083.756-.37.983h-4.713c-.045-.09-.09-.19-.105-.288a.87.87 0 0 1 .06-.552c.143.454.709.65 1.124.447.618-.303.709-1.097.95-1.687.287-.718.709-.937 1.448-.87.377.061.784.031 1.139-.022.34-.053.603-.03.897.159l.128-.19c-.58-.43-1.365-.097-2.013-.287a.9.9 0 0 1-.43-.257c-.31-.34-.098-.87.287-.907a.56.56 0 0 0 .014.688c.37.378.943.227 1.373.06.189-.09.4-.15.596-.136.204 0 .385.114.61.03.317-.113.355-.521.174-.748.49.129.807.832 1.38.923.34.053.747.03 1.018-.197a.5.5 0 0 1-.075.098c-.415.424-1.237.447-1.682.046-.083-.091-.218.053-.128.136.528.491 1.546.537 2.066.06-.173.242-.452.439-.701.567-.038.016-.053.053-.038.091s.053.06.09.046a2.26 2.26 0 0 0 .89-.53 1.11 1.11 0 0 0 .219-1.21c-.037-.068.068-.136.114-.068.264.386.279.885.105 1.308-.06.16-.15.31-.264.44-.068.06.03.166.098.113.143-.129.272-.273.37-.439.105-.197.196-.408.226-.643a2.3 2.3 0 0 0 0-.68c-.015-.076.098-.106.128-.03.151.43.189.892.068 1.338 0 .015 0 .03-.015.053-.03.083.09.143.136.06.128-.227.21-.469.256-.71.045-.258 0-.416 0-.416h1.033c.31-.515.453-1.172.144-1.717l.143-.113c.354.46.392 1.043.256 1.588-.083.347-.271.695-.497 1.005-.03.046-.03.106 0 .144a.11.11 0 0 0 .158 0c.279-.257.528-.56.709-.915.06.076.136.144.188.19.287.249.641.43 1.01.445.107 0 .122-.159.016-.174a1.35 1.35 0 0 1-.762-.476c-.316-.4-.414-1.029-.58-1.497-.076-.197-.166-.386-.31-.53a.9.9 0 0 0-.286-.181c-.257-.106-.445 0-.392.28 0 .022 0 .053.015.075.09.37.075.877-.241 1.188a.8.8 0 0 1-.589.226 1.1 1.1 0 0 1-.347-.053 2.8 2.8 0 0 0-.807-.12.9.9 0 0 0-.709.317h-.595c-.128.015-.272-.03-.287-.181 0-.053.015-.106.053-.137.234-.158.528-.189.814-.227a3.1 3.1 0 0 1 1.215.084c.354.098.814.25 1.085-.106.393-.514.03-1.12.068-1.694 0-.438.181-.862.136-1.308-.053-.5-.415-1.097-.988-1.028-.279.015-.49.272-.618.468-.09.114-.151.273-.264.288h-.12c-.204-.303-.793-.401-1.08-.023h-.18c-.189 0-.385 0-.566-.023a1 1 0 0 1-.354-.106c-.181-.105-.332-.257-.294-.483.052-.265.21-.575.18-.862h-.233c-.015.294-.174.506-.25.801a.4.4 0 0 0-.014.189c-.257-.197-.453-.522-.415-.824.023-.121.12-.235.226-.401a.85.85 0 0 0 .128-.605c-.067-.333.084-.506.408-.552.15-.023.316-.015.497-.023a.81.81 0 0 0 .755-.468c.098-.235.135-.47.339-.605.422-.257.995-.16 1.456-.356.309-.083.558-.287.837-.068l.271-.159c0-.25.159-.242.385-.295.226-.03.452-.12.573-.302.075.212-.068.492-.287.56h-.022l.113.34h.015c.384-.129.724-.09 1.086.098l.294.144a.55.55 0 0 0 .634-.083.46.46 0 0 1-.144.31l.166.295c.317 0 .596.181.883.325.165.083.361.159.588.151.218 0 .43-.136.565-.295.362-.469.77-.688 1.2-.491-.363.045-.604.378-.657.801-.052.235-.105.454-.233.59-.159.189-.46.204-.626.386a.17.17 0 0 0-.03.158c.075.431.414.825.874.87.347.03.71-.159.8-.461q.023.02.045.053c.196.242.211.537.068.718H31.76c0-.045.015-.09.015-.136v-.19l.12-.06a.53.53 0 0 0 .294-.476v-.582l-.037-.099-.634-.642a.74.74 0 0 0-.512-.22.933.933 0 0 0-.928.908h-.166l-.06.25.098.067c.128.099.226.227.301.37a.964.964 0 0 1-.377 1.256l-.113-.174a.66.66 0 0 0 .226-.295h-1.425c-.271-.348-.656-.582-1.131-.574-.113 0-.113.181 0 .181.935.046 1.357 1.157 1.184 1.974v.015a5 5 0 0 0-.068.416c.4-.16.875 0 1.161.325.114.113.212.242.28.393l-.151.076c-.204-.303-.604-.567-.958-.5a.7.7 0 0 1 .219.084c.58.408.791 1.036 1.334 1.452.234.196.528.378.777.355.076 0 .151.053.159.129 0 .083-.06.158-.144.158-.384-.015-.671-.25-.927-.484a5 5 0 0 1-.513-.574c.256.658.407 1.429 1.108 1.414h2.195c.015.083.045.166.075.25.129.28.378.483.694.483.626.083 1.01-.53 1.554-.59.482-.022.603.348.452.673a.417.417 0 0 0-.596-.226c-.143.068-.256.234-.346.347-.25.333-.543.666-.92.81a1.6 1.6 0 0 1-.77.098c-.61-.06-1.199-.5-1.229-1.134h-.226c-.015.635.445 1.141 1.003 1.376-.43.363-.664.968-.272 1.46.219.271.55.287.77.135-.038.325-.234.59-.672.59a1.063 1.063 0 0 1-1.078-1.02.11.11 0 0 0-.106-.107.12.12 0 0 0-.12.106c-.023.386.15.749.422 1.006H28.11a1.12 1.12 0 0 0-.49-.688c-.076-.06-.174.053-.106.12.105.107.203.228.256.356.106.235.076.484-.098.877a1.6 1.6 0 0 1-.264.424.08.08 0 0 0 0 .113c.03.038.09.046.128.015.272-.204.513-.506.574-.846h.709c-.212 1.587-2.142 2.147-1.35 3.13.03.045.022.106-.015.136-.038.03-.099.023-.129 0a1.1 1.1 0 0 1-.286-.537c-.046-.219.03-.438.12-.612.325-.567.815-.998 1.041-1.58-.422.536-1.214.975-1.538 1.663-.204.507-.166.975.543 1.414.12.083 0 .272-.121.197-.498-.288-.724-.605-.792-.938-.053-.386.083-.81.324-1.15.03-.045.023-.105-.015-.136-.045-.037-.113-.037-.15 0-.227.235-.4.53-.483.847a1.3 1.3 0 0 0-.053.235c-.015.136-.226.136-.226 0 .037-1.059 1.048-1.732.49-2.662h.566c.218.431.24.81-.038 1.233a.094.094 0 0 0 .023.12c.037.03.097.023.128-.014.158-.205.316-.431.347-.696a1.1 1.1 0 0 0 0-.318 2.2 2.2 0 0 0-.227-.748c-.18-.386-.135-.764.068-1.135a.1.1 0 0 0-.022-.105.083.083 0 0 0-.113.022c-.151.22-.295.469-.34.756-.023.106 0 .318.03.522h-3.68c0 .129 0 .25-.038.378h.49c-1.41.53-.656 1.558-1.07 2.632-.046.113-.22.038-.174-.076.242-.507.06-1.043.106-1.588 0-.159.045-.302.098-.446-.52.673-.656 1.361-.46 2.329.022.197.03.4-.023.59-.038.204-.173.37-.31.514a.096.096 0 1 1-.136-.136l-.036-.038zm9.148-1.255c-.053-.038 0-.129.06-.09.438.264.883.536 1.124 1.02.136.257.128.537.045.802h-.505c.422-.636-.09-1.225-.731-1.74zm-15.867 1.338c.286-.385.678-.733 1.131-.892.46-.174.89-.287 1.32-.461.852-.378 2.104-1.09 2.768-.03.188.241-.174.536-.37.294-.392-.672-1.048-.438-1.667-.181.506.053.928.31 1.305.802.181.204.37.37.618.4.106 0 .09.174-.015.167-.61-.046-.875-.689-1.35-.93-.362-.212-.988-.258-1.538-.114 0 0-.483.136-.634.197.136.03.31.257.415.499a1 1 0 0 0 .227.287c.037.03.045.076.015.113a.085.085 0 0 1-.121.016c-.332-.257-.355-.734-.762-.787a.8.8 0 0 0-.294.053c-.15.06-.294.144-.43.242-.18.136-.34.303-.49.476-.083.099-.234-.03-.15-.128h.014zm-6.056-.506c-.287-.242-.716-.182-.913-.03a1.14 1.14 0 0 1 1.546-.553c.287.144.883.802.71 1.09-.265.423-1.011.067-1.011.067s-.098-.385-.332-.582zm1.448 2.064c.136-.128.287-.234.46-.257.045 0 .075-.038.083-.083 0-.046-.03-.091-.083-.091-.55.038-.649.476-1.086.507-.347.03-.777-.121-.784-.47v-.604c0-.19.241-.182.241-.182s.468.235.98.053c.476-.166.528-.582.099-1.18.173.023.414.076.527.175.423.385.317 1.225.89 1.52.076.045.159.075.234.105a1 1 0 0 0-.143.084 2.7 2.7 0 0 0-.732.657q-.135.15-.294.288a.65.65 0 0 0-.392-.522m-2.323 5.407c-.709.46-1.455-.265-1.252-1.15.053-.25.151-.53.242-.786.452-.174.867 0 .648.34-.445.673-.324 1.46.37 1.603zm3.349-.658s-.023.053-.046.053c-.03 0-.06-.015-.067-.046-.129-.521.15-1.157.761-1.232.226-.038.287.302.053.31a.64.64 0 0 0-.528.28c-.12.173-.188.4-.18.635zm1.81 1.18c.113.045.271.022.271.022a1 1 0 0 1-.603.235c-.641 0-.95-.454-1.056-.863a2.7 2.7 0 0 1-.053-.468s.106-.205.377-.303c.166-.06.385-.083.505-.015.378.212.03 1.157.566 1.384zm3.393-2.61c-.083.492-.498.568-.498.568s.166-.182.151-.507c-.022-.53-.746-.491-.746-.491s-.28-.326-.12-.56c.157-.234.46-.06.46-.06l.436.257c.264.189.363.582.325.794zm9.33-1.255c-.853.764-2.52.507-2.754-.763 0-.053-.06-.099-.113-.091-.053 0-.09.06-.083.113.023.205.09.401.189.59-.49.688-1.523.522-1.893-.197-.075-.136-.264-.03-.196.091 0 0 .264.393.354.5-.739.392-1.787.082-2.255-.666l-.324.098.053.575c-.498-.114-.74-.696-.837-1.233l-.219-.038a2 2 0 0 0-.18.545c-.099.423.052.847.346 1.15-.407-.114-.754-.386-.928-.696.181-.454.181-1.135-.128-1.513l-.128.121c.377 1.097-.188 1.49-.188 1.49.135-.537-.076-.915-.408-1.12l-.309-.226v-.5h-.256v.553l.045.09.4.288a.725.725 0 0 1 .24.938l-.052.113c-.128-.076-.324-.189-.324-.189a1 1 0 0 0-.151-.068c-.053-.015-.453-.129-.656.22-.174.294.098.665.098.665h-.468c-.316 0-.49-.22-.497-.575 0-.333.264-.53.497-.522l.136-.136v-.446h-.241v.37c-.294.046-.49.212-.573.462-.121.348-.347.56-.589.658-.18.075-.331.045-.331.045s-.159-.295-.423-.423c-.105-.053-.196.098-.098.166.06.038.128.09.174.159.12.143.188.317.21.499h-.972c-.453 0-.74.234-.913.453-.173.22-.279.507-.294.81 0 .037-.03.06-.068.068a.08.08 0 0 1-.082-.068c-.076-.47.082-.968.444-1.27.09-.076.174-.16.264-.243a.83.83 0 0 0 .25-.378c.037-.159.037-.25.044-.408 0-.068-.052-.204-.196-.197a.177.177 0 0 0-.173.182c0 .332-.31.446-.61.461a1.14 1.14 0 0 1-.883-.325l-.257.25s.076.105.098.158a.65.65 0 0 1 .038.461H6.851c.113-.332.294-.892.294-.892.09-.393.317-.56.55-.416.046.03.099.06.144.106a.55.55 0 0 1 .173.408c0 .106.151.129.174.023a.82.82 0 0 0-.158-.703c.135-.378.55-.575.957-.522.302.023.71.06 1.019.023a1.3 1.3 0 0 0 .731-.348c.083-.09.166-.174.241-.257.128-.144.257-.287.392-.416.302-.287.71-.416 1.086-.567a1.3 1.3 0 0 0 .536-.355h4.962c.837.574 1.614.786 2.383.763v-.25a3.38 3.38 0 0 1-2.511-1.678.1.1 0 0 1 .03-.129c.038-.022.098-.015.12.023.302.386.657.71 1.072.93s.875.333 1.335.333h2.715a1.8 1.8 0 0 1-.212-.386c-.595-1.338.792-2.888.905-4.28h.762c.09.333.098.658.015.96.038-.052.068-.113.098-.166.159-.264.256-.552.211-.794h.71a.32.32 0 0 0-.038.325c.21.462.06 1.052-.136 1.535-.264.537-.626 1.037-.634 1.626 0 .28.09.545.204.802h-.347c-.317-.855-.03-1.407.302-1.944-.181.22-.392.424-.589.643a.204.204 0 0 1-.286.03c-.128-.105-.076-.325.083-.363.543-.173 1.063-.62 1.1-1.21.023-.264-.075-.529-.127-.793-.46 1.036-2.097 1.935-1.17 2.903.091.091-.052.235-.143.136 0 0-.015-.015-.022-.03-.332-.333-.506-.68-.558-1.02-.121.445-.151.884 0 1.277q.07.173.173.31c.136.182.31.34.453.507.083.09.15.181.21.287a.9.9 0 0 1 .129.431h.158c.046-.302-.045-.544-.18-.771h1.168s.181.212.204.242c.648.855.89 1.95.098 2.624zm-2.082 3.456c.316.06.656.053.905-.159.12-.106.24-.242.4-.34.203-.121.43-.227.64-.19.136.024.098.22.015.235-.316.076-.58.242-.769.386.604-.015 1.222.113 1.803.242.95.272 1.87.22 2.609-.492.15-.12.31-.264.528-.34.211-.083.452-.045.64.038.046.015.061.068.046.113a.084.084 0 0 1-.106.046c-.384-.159-.678.06-.942.332-1.493 1.483-2.956.553-4.548.454-.927-.053-2.224.688-2.828 1.596-.052.113-.226.03-.173-.084.384-.733 1.056-1.24 1.787-1.61.038-.023.083-.038.12-.053-.044 0-.097-.023-.143-.038-.09-.023-.06-.159.03-.136zm5.422 1.3c-.241.197-.43.515-.43.825h-.43c.098-.424.408-.749.785-.93.03-.015.075 0 .09.03s0 .06-.015.083zm-9.36.613c1.2-.174 1.404-1.837 2.535-2.2a1 1 0 0 1 .294-.046c.113 0 .226.023.34.046.278.098.158.521-.136.446-1.132-.34-1.742 2.034-3.032 1.958-.12 0-.12-.189 0-.196zm-7.073 1.089a.94.94 0 0 0-.58.393c-.03-.484.324-.915.814-1.043.686-.22 1.146.242 1.644.695.022.023.038.038.045.06.226.326-.166.742-.513.545-.06-.03-.113-.106-.166-.15l-.18-.19a1.12 1.12 0 0 0-1.064-.287zm-.49 5.218a.64.64 0 0 1-.505.06c-.174-.053-.34-.144-.46-.174-.49-.128-1.064.114-1.26.605a.8.8 0 0 0-.053.34c-.663-.809-.09-2.011 1.086-2.011h.92c.762 0 .807.885.272 1.187zm.633.196c-.045.038-.113.038-.15 0-.038-.045-.038-.106 0-.143 0 0 .505-.605 0-1.24h.58c.219.967-.445 1.39-.445 1.39h.015zm4.291 4.076c-.588.325-1.44.204-1.832-.673-.204-.446-.143-1.172-.143-1.172 0-.22.233-.492.61-.492s.581.235.581.462v.703c.015 1.157.792 1.172.792 1.172zm-.392-2.76c-.226-.144-.4-.295-.686-.318-.249-.015-.52.015-.747.144-.105.06-.21-.098-.12-.174.498-.431 1.274-.461 1.84-.113.309.181.038.673-.287.46m-.709-2.027c-.316.273-.656.227-.656.227s-.06-.015-.053-.075c0-.06.068-.06.068-.06s.566.022.664-.765h.362s-.075.409-.385.68zm2.142-.06c.159.197.272.43.302.68.015.084-.113.114-.136.03-.098-.355-.34-.62-.641-.8a1 1 0 0 1-.166-.092c-.196-.128.023-.416.196-.264.558.544 1.486-.19 2.006.423.06.068-.045.159-.098.09a.54.54 0 0 0-.437-.188c-.332.015-.694.128-1.033.128zm2.172 2.36a.66.66 0 0 0-.294-.689q-.26-.181-.701-.204c-.355-.461.135-.908.512-.923.815-.038 1.079 1.021.483 1.823zm3.25-.477c-.497-.136-.95-.484-1.16-.96-.107-.197-.16-.409-.235-.613.015.212 0 .423.015.62 0 .144.038.28.129.325.037.023.052.076.022.114-.068.075-.18.045-.256-.023-.317-.288-.483-.87-.86-1.081a1.3 1.3 0 0 0-.422-.152c-.264-.053-.159-.453.098-.37.58.151.837.688 1.063 1.172a.5.5 0 0 0 .053.083c-.068-.416 0-.975-.31-1.217-.188-.144-.052-.356.136-.31.611.15.581.892.777 1.346.166.46.543.77.988.93.076.03.03.158-.045.128zm1.252.204a1.66 1.66 0 0 1-.814-.348c-.468-.363-.777-.938-1.026-1.467-.128-.242-.279-.461-.497-.514-.151-.046-.091-.272.06-.242.332.06.543.34.709.59.4.658.814 1.406 1.651 1.46.355.044.272.574-.075.52zm2.859-.71a.117.117 0 0 1 .143.097c0 .06-.03.121-.09.129-.265.06-.544.113-.83.038a1.7 1.7 0 0 1-.332-.129 3.9 3.9 0 0 1-.943-.733c-.286-.295-.565-.613-.867-.802-.03.5.158 1.044.656 1.233.113.045.053.212-.06.181-.71-.204-.996-1.028-.898-1.716 0-.046.03-.084.06-.106a.18.18 0 0 1 .227-.03c.475.264.747.71 1.063 1.104q.195.25.423.476c-.204-.34-.302-.771-.438-1.127-.045-.12-.105-.227-.196-.28-.09-.06 0-.196.09-.143.265.166.34.461.438.718.166.567.415.96.83 1.104a.7.7 0 0 1-.197-.438c0-.106.151-.121.159-.016a.58.58 0 0 0 .279.416.65.65 0 0 0 .49.053v-.03zm2.82-6.285c-.648.167-1.418.227-2.096.409-1.81.43-2.632 2.223-.988 3.493.037.03.09.053.09.106h-1.116c.385.363.596.907.536 1.43 0 .045-.046.075-.084.067-.037 0-.067-.038-.067-.075.015-.666-.543-1.414-1.14-1.414h-1.81a2.67 2.67 0 0 0-1.688-.537c-.038 0-.076.03-.076.068s.038.068.076.068c.37 0 .761.159 1.108.378.34.22.634.514.822.854.015.03 0 .076-.022.091-.023.015-.068.015-.09-.015a2.5 2.5 0 0 0-.778-.68 2.1 2.1 0 0 0-.957-.242h-6.366c-.158.393-.633.59-.995.672-.18.053-.34.106-.475.235-.045.053-.136 0-.106-.068a.6.6 0 0 1 .09-.151 1.14 1.14 0 0 1 .453-.303c.189-.075.362-.128.52-.234a1 1 0 0 0 .16-.129c.173-.189.256-.461.33-.718l-.157-.068c-.144.506-.52.733-1.026.764H11.64c.158-.394.49-.704.92-.658.385.022.754.234 1.176.113.242-.083.385-.212.536-.302.302-.212.596-.182.905-.03l.143-.333s-.626-.144-.596-.734c0-.212.129-.438.332-.59.053-.038 0-.12-.052-.098a1.03 1.03 0 0 0-.626.582s-.023.023-.053.038a.7.7 0 0 1-.128.053c-.807.212-1.2-.59-.71-1.112l.076.076c.528.68 1.584.144 1.312-.68.264.022.483.211.566.499l.15.416c.702 2.132 3.342.982 4.714.136.196.196.445.31.709.385l.038-.098c-.25-.159-.49-.386-.566-.62a.663.663 0 0 1 .422-.824l-.105-.295a5.5 5.5 0 0 1-.815.242c-.806.15-1.07-.28-1.908-.129-.21.038-.37.204-.452.378-.068-.204 0-.453.158-.665h5.053c.453-1.074 1.358-1.845 2.61-1.694.565.038 1.093.181 1.613.265.52.083 1.026-.053 1.516-.28.09-.045.159.098.068.144a2.7 2.7 0 0 0-.732.74c-.09.152-.158.303-.21.462h-.574a2.34 2.34 0 0 1 .717-.885c-1.644.363-3.371-.885-4.314 1.12-.015.037-.038.082-.053.12-.196.462-.249.976-.09 1.437.022.09.165.06.158-.03-.03-.318 0-.628.128-.893.083-.189.204-.355.34-.514h1.327c.06.06.12.129.143.204.12.303-.045.628-.249.87a.073.073 0 0 0 0 .106c.03.038.083.045.113.015q.157-.123.28-.28c.15-.181.233-.416.24-.65 0-.159-.03-.31-.105-.454a.77.77 0 0 0-.309-.332c-.264-.152-.603-.114-.89-.053-.075.015-.128-.069-.068-.144.287-.363 1.192-.355 1.787-.204.166.038.106.295-.06.257a2.6 2.6 0 0 0-.648-.151c.286.09.527.287.656.604a.7.7 0 0 1 .068.197h4.555c-.106.121-.264.197-.475.257zm.46 8.31c.611-.453 1.328-1.02 1.41-1.822.06-.612-.392-1.104-.603-1.678-.015-.03-.015-.069-.023-.106-.354.567-.799 1.119-1.47.522-.09-.076.023-.212.113-.144.641.476.845-.25 1.116-.749h.611c-.422.862 2.021 2.08-1.063 4.114-.083.06-.174-.076-.09-.136m2.036-2.313c-.03-.28.385-.318.408-.03.045.96-.536 1.852-1.328 2.313-.037.023-.083 0-.105-.022-.023-.038 0-.084.022-.106.347-.257.641-.582.815-.953.173-.37.249-.794.196-1.195zm-8.423 3.017c.165-.355.369-.545.58-.635.86-.378 1.539.4 1.312.71-.113.16-.377.174-.595.03-.294-.196-.905-.332-1.305-.105zm.339 5.044c-.611 0-1.033.143-1.305.438a1.25 1.25 0 0 0-.302.635c-.263-.476-.309-.937-.135-1.308.241-.507.882-.786 1.772-.786a.45.45 0 0 1 .355.143c.279.31.067.915-.385.893zm.882.642c-.045.038-.113.038-.15 0-.038-.045-.038-.106 0-.144.377-.408.49-1.05.195-1.52h.543a1.66 1.66 0 0 1-.588 1.68zm5.015 2.722s-.475-.136-.761-.355c-.581-.431-.28-1.467.482-1.33.098.014.317.135.287.332-.023.128-.076.151-.158.454-.129.438.158.9.158.9zm.408-2.843c-.325.28-.642.295-.596.749 0 .196-.302.204-.294 0 .015-.477.497-.711.761-.885.121-.09.234-.197.242-.318 0-.083.143-.075.135 0 0 .19-.135.326-.264.44zm5.852-2.155c.06-.484-.415-.892-.965-.96-.06 0-.264-.038-.264-.038a.363.363 0 0 1-.264-.461.363.363 0 0 1 .482-.227s.136.053.181.075a.3.3 0 0 1 .106.046c.882.333 1.335.953.731 1.573zm.105-2.896c-.279-.22-.497-.439-.98-.423a.076.076 0 0 0-.075.075c0 .046.03.083.075.083a.95.95 0 0 1 .452.129c.287.174.476.484.747.688q.204.147.407.227a.8.8 0 0 1-.528.318c-.09.015-.188.015-.286.015-.37-.015-.687-.197-.95-.454-.272-.272-.649-.582-1.064-.544a.084.084 0 0 0-.083.083c0 .053.038.09.083.09.392 0 .634.28.883.552-.543.053-.875.757-.423 1.195a.4.4 0 0 0 .068.053c-.105.053-.203.114-.294.166-.709.507-1.373.643-2.051.046-.023-.015-.03-.03-.053-.053a2.3 2.3 0 0 0-.053-.87c-.023-.106-.188-.068-.173.038.022.159.015.333 0 .5a2.5 2.5 0 0 1-.589 1.247 2.44 2.44 0 0 1-.987.718q-.364.16-.74.227c-.045 0-.082-.023-.09-.06 0-.046.023-.084.06-.091.483-.151.973-.431 1.313-.817.279-.333.392-.809.339-1.263 0-.143-.226-.136-.226 0 0 .16-.046.772-.506 1.165-.663.56-1.282.627-1.651.62-.03 0-.06-.03-.06-.06s.022-.061.06-.061c.663-.038 1.32-.469 1.674-1.013.023-.03.045-.068.068-.099.015-.03 0-.068-.015-.083-.03-.015-.06 0-.076.015-.196.25-.43.47-.709.613-.271.143-.58.166-.867.166h-1.765a.98.98 0 0 0-.18 1.021.1.1 0 0 1-.06.12.09.09 0 0 1-.114-.044c-.12-.242-.204-.53-.15-.825.044-.264.188-.484.331-.673.128-.211.234-.438.173-.688-.015-.068-.12-.06-.128 0-.03.182-.128.325-.241.47a1.9 1.9 0 0 0-.377.612h-2.157c.158-.348.49-.568.89-.515h.46c.558 0 1.033-.514 1.01-1.066v-.227c-.022-.34.144-.703.49-.801.069-.015.061-.121-.014-.114-.34.016-.626.258-.755.56-.03.068-.052.136-.075.204-.234.038-.43.106-.671.121-.784.098-1.222-.771-.732-1.316a.8.8 0 0 0 .355.099c.452.03.739-.348.724-.726h.942c.151.264.302.59.604.764.309.173.633.173.95.188h.015q.238 0 .453.069c.324.098.527.385.83.544.173.083.369.106.55.09.067 0 .067-.113 0-.12a.87.87 0 0 1-.445-.151c-.128-.091-.227-.22-.347-.356-.189-.234-.475-.4-.77-.491a1.6 1.6 0 0 1 .295-.552h1.063a2.74 2.74 0 0 0 1.237-.303c.392-.196.709-.506.995-.862.023-.038.076-.045.113-.023.038.023.053.084.023.121-.249.439-.61.81-1.033 1.09-.045.037-.098.067-.143.098-.377.227-.807.347-1.252.4-.046 0-.076.038-.076.084 0 .045.046.083.083.083.732.03 1.47-.22 2.051-.68h3.801c.242 0 .43.06.604.249.18.211.513.385.8.34v-.159c-.28-.023-.438-.143-.597-.378-.015-.015-.022-.038-.037-.053h1.38s-.046 2.064-1.803.666h-.015zm-1.236-4.038a.22.22 0 0 1 .15-.264.217.217 0 0 1 .264.15c.06.477.25.938.55 1.324.099.129.212.257.333.363.068.06 0 .159-.076.136-1.365-.295-2.405-1.482-2.534-2.873h.589c.022 1.141.58 2.132 1.674 2.654a3 3 0 0 1-.928-1.497zm.414 2.02c.121.044.046.226-.068.173-.618-.287-1.1-.764-1.47-1.323.038.083.068.158.105.242.099.196.204.4.325.582 0 0 .06.083 0 .144a.084.084 0 0 1-.12 0 2 2 0 0 0-.597-.325c-.21-.069-.414-.069-.648-.046-.113 0-.212-.075-.219-.181a.2.2 0 0 1 .219-.22c.34 0 .678.121.965.31a7.4 7.4 0 0 1-.762-2.11.163.163 0 0 1 .106-.196.153.153 0 0 1 .196.106c.279 1.134.897 2.291 1.968 2.85zm-.724 1.012s-.09 0-.105-.03c-.317-.537-.822-.998-1.47-.937-.235 0-.235-.348 0-.34.73 0 1.326.574 1.62 1.194.023.038 0 .09-.037.113zm7.278-2.283s.038.075 0 .106c-.06.045-.098 0-.113 0-.566-.719-1.478.03-2.06.393-.429.31-.98.423-1.5.37a2.2 2.2 0 0 1-1.07-.378c0 .023.022.046.03.076.09.325 0 .627-.212.847.596-.015 1.207-.129 1.592.416a.117.117 0 0 1-.015.158c-.046.038-.106.03-.151 0-.287-.302-.634-.287-1.01-.196-.423.09-.89.159-1.328.045a.27.27 0 0 1-.181-.332.27.27 0 0 1 .234-.19c.4-.022.709-.272.67-.65-.112-.423-.587-.635-.844-1.013a1.44 1.44 0 0 1-.317-.968c0-.121.181-.121.189 0 .015.303.136.575.34.786a1.8 1.8 0 0 0 .361.318c-.271-.484-.377-1.066-.309-1.671h.52c-.316 1.535.807 2.798 2.451 2.374.604-.22 1.373-.892 2.044-.854a1.33 1.33 0 0 0-.77-.023c-.55.114-.957.53-1.515.65-1.47.356-1.9-.96-1.765-2.14h.476c.218.348.565.416.995.378.49-.052 1.146.038 1.41.537.053.076-.068.167-.128.091-.633-.726-1.652.023-2.293-.506.136.423.483.748.928.861.098.023.06.182-.038.16-.4-.069-.746-.31-.98-.643.09.665.46 1.18 1.327.983.257-.053.498-.152.724-.288.498-.272 1.109-.453 1.667-.25.279.099.498.31.633.568h.023zm-5.505-3.048c-.853-.219-1.6-.824-1.705-1.754l-.196.023c.113 1.701 1.923 2.586 3.605 2.087.588-.182 1.093-.409 1.757-.31.905.098 1.968.718 2.881.219.241-.144.437-.4.445-.703 0-.053 0-.106-.015-.159.15.113.256.28.279.492a1.12 1.12 0 0 1-.287.892h-10.31c-.023.098-.053.22-.068.363-.083.62.068 1.27.422 1.784.068.084-.052.197-.128.114a2.9 2.9 0 0 1-.694-1.437 2.4 2.4 0 0 1 .008-.824s.03-.151.053-.22v-.03c.105-.332.309-.635.61-.862.076-.06 0-.181-.09-.128-.347.204-.663.499-.844.877q-.089.179-.144.37h-2.036s0-.045-.015-.068c-.226-.612-.973-1.073-.747-1.792.294-1.02.973-1.164 1.426-2.367.226-.74.475-1.618.15-2.344-.052-.12-.135-.227-.218-.34-.053.514-.4.96-.898 1.24-.098.06-.196-.083-.098-.151.573-.4.936-1.218.4-1.77a1.43 1.43 0 0 1-.422-.87 1.3 1.3 0 0 1 .12-.725h-1.485v-.068c0-.348.264-.65.317-1.02a.94.94 0 0 0-.136-.598l-.12.06c.15.37-.024.635-.242.93a1.4 1.4 0 0 0-.272.68c-.21 0-.415-.03-.596-.12-.46-.288-1.018-.855-1.598-.953.52-.741.595-1.792.173-2.578a4 4 0 0 0-.12-.182 11 11 0 0 0-.265-.348V33c-.263-.348-.497-.696-.46-1.127 0-.06.068-.105.129-.098.052 0 .098.053.098.106 0 .348.279.597.558.854q.135.125.271.273c.106.113.211.234.302.363l.068.09c.4.522.618 1.21.467 1.83l-.037.106.196.083c.324-.658.241-1.444-.068-2.11h.603a1.3 1.3 0 0 1-.105.258l.135.083c.076-.106.151-.204.204-.318.302-.469-.166-.9-.294-1.33a1.4 1.4 0 0 1-.038-.492c0-.053.053-.09.106-.083.053 0 .09.053.083.106-.023.272.083.484.21.695a2.57 2.57 0 0 1 .59-1.77c.27-.377.55-.725.655-1.14a1.7 1.7 0 0 0 .053-.644h1.682c-.106.174-.28.303-.392.416-.528.507-.22 1.414.475 1.603.06.015.045.114-.015.114-.792.015-1.267-.78-1.124-1.482-.664 1.005-.77 2.51.354 3.206.06.038 0 .128-.052.098a1.95 1.95 0 0 1-.86-.817c-.264-.506-.332-1.073-.257-1.625-.573.779-1.206 1.391-.52 2.782.068.114.098.235.128.37q.035.196.068.402c.06.385.151.74.543.892l.076-.144c-.272-.159-.302-.416-.287-.71v-.44h2.828c.37.757.988 1.34 1.538 1.952.551.612.898 1.074.966 1.905h-3.575c0-.234.226-.363.234-.627a.73.73 0 0 0-.174-.424l-.135.076c.286.484-.785 1.005-.438 1.852.257.605.762.915 1.071 1.558.136.303.189.605.196.908.121-.522.144-1.051-.053-1.573-.12-.356-.339-.756-.195-1.15.03-.113.203-.06.173.053-.136.37.105.688.226 1.029.143.363.226.763.196 1.157-.038.725-.279 1.414-.513 2.102h.49c.687 0 1.396-.923 1.63-1.702.022-.098.173-.068.158.03-.075.44-.264.87-.513 1.256-.301.484-.716.65-.897.733-.023.016-.106.03-.09.099.014.083.112.06.112.06.408-.045.77-.234 1.086-.491h2.896c.053.143.015.302-.075.506-.204.439-.438.968-.347 1.49.083.537.37 1.081.77 1.452v-.046zm-1.795-6.987s-.03-.098.06-.143c.075-.046.158-.03.234.075.535.711.626 1.52.505 2.322q-.023.168-.068.325c.453-.84.332-1.732.325-1.74 0-.037.03-.067.075-.075.045 0 .09.023.09.06 0 .054.181 1.256-.618 2.231a.1.1 0 0 1-.098.023c-.068-.023-.06-.068-.053-.076.234-.809.25-1.731-.15-2.51.165.99-.272 2.042-1.222 2.7-.068.037-.159.068-.234 0-.06-.053-.053-.13.022-.205.92-.96 1.162-2.208.189-3.153.181.514.173 1.059.068 1.588-.015.083-.113.136-.219.121-.098-.015-.166-.09-.15-.174.173-.567.226-1.187 0-1.754-.038-.076.052-.167.158-.091.965.688 1.176 1.626.875 2.503.361-.628.444-1.354.203-2.027v-.015zm-2.436 2.39s.286-.234.43-.522c.279-.552.233-1.096.045-1.618a2.9 2.9 0 0 0-.4-.749.286.286 0 0 1 .06-.393.288.288 0 0 1 .43.121c.121.303.212.62.272.923.12.62.053 1.255-.226 1.822-.181.37-.815 1.346-.868.492 0-.22.083-.44.189-.62.023-.038.068-.053.105-.03.03.022.046.06.038.09-.113.333-.06.476-.06.476zm4.042-1.422c-.03-.045-.068-.09-.098-.136-.55-.733-1.23-1.557-2.225-1.474-.158 0-.15-.242 0-.242 1.6.053 2.225 1.777 3.364 2.6.37.288.784.492 1.221.598.136.03.22.167.189.303a.256.256 0 0 1-.354.166c-.626-.28-1.132-.71-1.584-1.195.015.053.038.099.053.152.15.43.301.87.58 1.058.046.03.06.091.03.136a.1.1 0 0 1-.082.046c-.023 0-.038 0-.053-.015-.332-.227-.498-.704-.656-1.157-.114-.333-.227-.643-.385-.825zm8.107 3.206c-.445-.325-1.108-.31-1.599-.15-.799.234-1.47.77-2.285.944-1.538.447-2.994-.211-3.936-1.429h3.537c.339.235.709.409 1.108.492.045 0 .09-.015.106-.06.015-.046-.015-.092-.053-.099q-.194-.078-.377-.166a3.23 3.23 0 0 1-1.244-1.12.094.094 0 0 1 .022-.12c.038-.023.09-.023.113.015.294.348.641.635 1.034.809.392.181.761.242 1.251.242h.996c.58-.038 1.048.219 1.327.635zm-2.624-3.364c.588-.16 1.108-.764 1.13-1.46 0-.098.144-.098.144 0 0 .507-.21.976-.565 1.308.565-.295 1.048-.84 1.72-.695.082.022.052.143-.031.128a.7.7 0 0 0-.249 0 .7.7 0 0 0-.219.098c-.414.356-.58.893-.905 1.331-.015.023-.09.121-.105.144 0 .015-.023.023-.03.038-.332.446-.506 1.142-1.109 1.27-.038 0-.075-.023-.075-.06 0-.038.022-.068.06-.076.317-.098.49-.378.641-.68a2.3 2.3 0 0 1-.777.362c-.226.038-.83.197-.822-.204a.23.23 0 0 1 .28-.196c.655.105 1.319-.257 1.734-.764.256-.28.445-.65.694-.945-.257.204-.506.446-.792.567-.181.083-.822.31-.875.038 0-.068.015-.167.18-.212zm-2.798-6.435h-.807a2.4 2.4 0 0 1-.49-.583 2.1 2.1 0 0 1-.302-1.308c0-.083.083-.144.166-.128.083 0 .143.083.128.166-.053.824.543 1.61 1.305 1.86zm4.924-5.528c.581-.121 1.192.038 1.509.469a1.05 1.05 0 0 0-.913.023 2.6 2.6 0 0 0-.565.438H43.17c.49-.37.943-.817 1.546-.922zm-4.2.53c.437.098.731.385 1.139.612.203.12 1.025.59 1.817.264l.12.242c-.746.409-1.628.084-2.315-.294-.346-.212-.708-.401-1.108-.416h-1.358c.49-.379 1.109-.575 1.72-.416zm-4.156 2.238c.053 0 .099.022.114.068.166.612.482 1.156.897 1.618-.211-1.49.784-2.896 2.376-3.116.158-.015.188.227.03.25-1.539.317-2.406 1.928-1.69 3.365.129.287-.203.506-.414.363 0 0-.015-.015-.03-.023-.702-.643-1.192-1.482-1.358-2.412 0-.053.023-.106.075-.113m1.479-10.95h-.792c.022-.136.053-.272.136-.408.301-.522 1.033-.726 1.53-1.104a1 1 0 0 0 .083-.068v.022c-.015.681-.701.976-.95 1.566zm.897-.461c.28-.144.626-.121.92-.295a1.36 1.36 0 0 0 .679-1.248c.362.409.467.999.136 1.49-.166.242-.377.355-.604.514h-1.606c.128-.196.287-.363.475-.461m7.293 1.3c.015.227-.664.568-1.426.674-.61.083-.905.052-1.357.052-.566-.03-1.146.363-1.539.764-.143.159-.294.34-.422.53.355.053.701.234.905.514.272.317.483.71.92.733.045 0 .075.046.075.091 0 .038-.037.076-.075.076-.483.037-.837-.394-1.139-.696a1.02 1.02 0 0 0-.686-.318c.15.144.332.416.392.567.076.197-.09.303-.256.25s-.151-.212-.702-.098c-.709.15-1.515.763-2.21.28-.082-.069.016-.197.106-.137.189.129.43.129.657.076.64-.136 1.312-.726 1.99-.605-.06-.06-.12-.121-.18-.166-.159-.114-.31-.106-.498-.038-.573.257-1.26.31-1.712-.174-.03-.038-.03-.09 0-.121.03-.03.083-.03.113 0 .566.469 1.372.083 1.832-.363 0 0 1.117-1.474 2.3-1.407 1.735.099 2.135-.166 2.135-.166s-.28.106-1.252.015c-1.026-.098-1.214-.287-1.72-.219-.482.06-.776.582-1.184.953-.392.393-.867.726-1.417.885-.076.022-.128-.046-.128-.106v-.015c-.023-.59-.513-1.029-1.041-1.195a.234.234 0 0 1-.151-.31c.128-.273.377-.106.558 0 .362.234.664.582.77.998.03.128.052.257.044.386.46-.167.853-.47 1.2-.825.331-.317.595-.763 1.025-.96-.422.038-.844.234-1.32.771-.082.091-.233-.038-.15-.136.686-.84 1.365-1.096 2.435-.801 1.584.43 2.369.25 2.746.128.12-.038.332-.113.347.09zm-.347-.839q.147-.104.294-.196c.701-.522 1.757-.477 2.247.196z" style="--darkreader-inline-fill:var(--darkreader-background-14006e, #100058)"/><path fill="#14006E" d="M23.978 30.466c.158-.265.294-.537.332-.817.015-.12.015-.25 0-.37-.06.136-.144.264-.211.385-.438.62-.702 1.18-.589 1.785.053-.333.25-.666.475-.976zm8.371-20.061c-.513-.174-.83-.802-.852-1.18 0-.053-.038-.09-.083-.106-.053 0-.098 0-.12.053 0 0-.657 1.09-1.909 1.12-.06 0-.106.052-.113.113 0 .06.045.113.106.113a4.6 4.6 0 0 0 1.123-.106c.257-.053.475-.09.71-.068.256.023.406.084.557.144s.302.121.55.136a.12.12 0 0 0 .114-.09c0-.054-.023-.114-.076-.13zM5.6 13.823a.164.164 0 0 0-.114.174c0 .075.06.143.136.15a.8.8 0 0 0 .196.016c.603 0 1.29-.454 1.32-.476a.17.17 0 0 0 .06-.212.165.165 0 0 0-.204-.083c-.354.12-.543-.03-.776-.227-.151-.121-.31-.25-.52-.303a.18.18 0 0 0-.197.099c-.03.075 0 .159.06.211.197.136.212.227.22.258.052.294-.144.378-.174.393zm3.19.363c.399 1.02 2.805.302 2.428-.862-.34-1.059-2.926-.394-2.429.862m.3-.204c-.218-.817 1.592-1.354 1.818-.53.189.688-1.606 1.27-1.817.53M36.557 8.22c-.166.43-.18.884-.407 1.285-.377.801-1.23 1.15-2.097 1.172-.052 0-.098.045-.105.098 0 .06.037.121.098.129.95.144 2.066-.257 2.534-1.157.249-.4.331-.87.467-1.308.159-.461.77-.764 1.109-1.202.286-.409.12-.878-.234-1.165-.279-.265-.641-.469-.332-.794.204-.204.694-.423.71-.824.044-.431-.438-.65-.68-.862-.15-.129-.271-.272-.173-.461.075-.137-.128-.242-.196-.106-.158.257.015.574.226.726.211.211.558.355.566.642 0 .303-.423.37-.71.598a.7.7 0 0 0-.293.612c.015.37.407.635.603.794.709.545-.196.885-.603 1.225a1.7 1.7 0 0 0-.498.62zm10.302 3.478s-.068 0-.09.03c0 0-.672.817-1.479 1.029-.038 0-.068.06-.068.105 0 .046.045.068.09.091 0 0 .536.182 1.162.575h.038q.045 0 .068-.046c.022-.045 0-.083-.015-.128-.264-.605.06-1.18.309-1.52.068-.09.023-.128 0-.144zm-6.395 1.119c-.664 1.3 2.126 2.011 2.24.68.097-1.02-1.826-1.52-2.24-.68m1.9.59c-.083.756-1.99.34-1.591-.477.279-.574 1.666-.181 1.591.477m-.528-2.737a.11.11 0 0 0-.075-.106c-.046-.015-.09 0-.129.037-.037.038-.475.56-1.364.847a.11.11 0 0 0-.076.121c0 .053.053.099.106.099 0 0 1.033.045 1.893.499.015 0 .037.015.052.015.038 0 .076-.015.09-.053a.12.12 0 0 0-.022-.151s-.467-.393-.482-1.309z" style="--darkreader-inline-fill:var(--darkreader-text-14006e, #967fff)"/><path fill="#14006E" d="M11.097 12.174c-.83-.113-1.342-.71-1.35-.718a.17.17 0 0 0-.173-.068.17.17 0 0 0-.129.128c-.158.749-.482 1.059-.814 1.316-.445.325-.694.242-.626.424.053.15.452-.023.626-.114.377-.189.385-.348 1.01-.552a2.94 2.94 0 0 1 1.433-.083c.136.03.25-.045.25-.159 0-.09-.061-.159-.227-.181zm17.134-1.844c0-.061-.03-.114-.09-.122-2.021-.461-2.18-1.512-2.18-1.52 0-.06-.052-.098-.113-.098a.114.114 0 0 0-.113.098s-.158 1.067-2.18 1.52a.13.13 0 0 0-.09.121c0 .06.053.098.113.098.573 0 1.033-.098 1.44-.181.31-.068.581-.12.823-.12.24 0 .52.052.822.12.407.083.86.181 1.44.181.06 0 .106-.045.113-.098z" style="--darkreader-inline-fill:var(--darkreader-text-14006e, #967fff)"/><path fill="#14006E" d="M24.544 11.418c.06 1.157 2.639 1.089 2.579-.068-.09-1.21-2.64-1.225-2.58.068m2.224-.098c.046.71-1.9.771-1.9.03-.015-.9 1.847-.9 1.9-.03m-.112-5.3c.317-.326.573-.621 1.056-.492.241.068.58 0 .731-.22.099-.106-.075-.257-.166-.15a.43.43 0 0 1-.226.135c-.203.03-.437-.09-.663-.075a.86.86 0 0 0-.393.098c-.497.227-.784.832-1.35.748-.331-.045-.55-.264-.867-.415-.445-.227-.965-.242-1.433-.144-.143.023-.105.242.03.227.755-.091 1.222.196 1.833.59.543.294 1.071.113 1.44-.31zM13.91 11.97s-.324.318-.324.628c0 1.353 3.212.665 2.647-.552-.204-.439-1.01-.575-1.66-.401.106-.129.204-.257.287-.4.211-.349.37-.734.415-1.15a2.1 2.1 0 0 0-.211-1.233c-.287-.688-1.674-1.618-.98-2.314.196-.196.444-.514.248-.809-.105-.159-.309-.174-.437-.242-.58-.325-.362-.847.143-1.134a.07.07 0 0 0 .03-.076c-.015-.03-.045-.045-.075-.037a1.3 1.3 0 0 0-.505.347c-.136.16-.234.409-.144.65.076.22.227.402.423.515.105.068.264.098.301.151.106.167-.067.272-.21.454-.506.552-.061 1.232.286 1.724.437.612.822 1.21.724 1.974-.083.703-.445 1.399-.95 1.92zm.905-.106c.302-.075.912-.038 1.04.257.332.78-1.84 1.18-1.84.386 0-.31.498-.59.792-.643zm15.173-.514c-.362 1.225 2.406 1.558 2.406.318 0-1.021-2.142-1.21-2.406-.318m.325.083c.21-.688 1.734-.469 1.757.174.023.802-1.976.567-1.757-.174m-8.899.197c-.196-1.097-2.504-.764-2.459.264.068 1.074 2.64.817 2.459-.264m-.392.015c.105.658-1.622.915-1.682.189-.06-.71 1.56-.938 1.682-.189m14.17.197c-.566 1.323 2.217 1.807 2.27.544.038-1.013-1.908-1.399-2.27-.544m1.93.4c.053.923-2.118.515-1.59-.355.309-.514 1.56-.265 1.59.355" style="--darkreader-inline-fill:var(--darkreader-text-14006e, #967fff)"/><path fill="#14006E" d="M21.188 10.624c.06 0 .12-.03.135-.09.015-.061-.03-.122-.09-.137-.03 0-.58-.128-.973-.84a.13.13 0 0 0-.106-.06c-.045 0-.083.03-.098.076 0 0-.233.613-1.139 1.225a.6.6 0 0 0-.113.076.12.12 0 0 0-.022.159c.022.03.06.045.09.045.023 0 .046 0 .06-.015.03-.023.06-.038.091-.06a3.08 3.08 0 0 1 2.165-.386zm65.414 18.98H75.094V19.252h-5.716v27.131h5.716V35.11h11.508v11.274h5.717V19.252h-5.717zm8.583 16.779h16.523v-5.505h-10.807v-5.731h9.653v-5.505h-9.653v-4.878h10.807v-5.512H95.185zm24.117-19.531c0-1.588 1.35-2.556 3.522-2.556 2.474 0 3.975 1.512 4.02 3.599h5.912c0-4.771-3.054-9.029-9.736-9.029-5.332 0-9.306 3.373-9.306 8.016 0 9.92 14.216 6.7 14.216 11.509 0 1.784-1.742 2.949-4.246 2.949-2.7 0-4.6-1.55-4.6-3.948h-5.641c0 5.422 4.328 9.377 10.241 9.377s9.925-3.562 9.925-8.37c0-10.353-14.292-7.056-14.292-11.547zm21.871 0c0-1.588 1.35-2.556 3.522-2.556 2.473 0 3.974 1.512 4.012 3.599h5.912c0-4.771-3.054-9.029-9.736-9.029-5.332 0-9.306 3.373-9.306 8.016 0 9.92 14.216 6.7 14.216 11.509 0 1.784-1.742 2.949-4.246 2.949-2.7 0-4.601-1.55-4.601-3.948h-5.641c0 5.422 4.329 9.377 10.242 9.377 5.912 0 9.924-3.562 9.924-8.37 0-10.353-14.291-7.056-14.291-11.547zm16.01 19.531h16.531v-5.505H162.9v-5.731h9.66v-5.505h-9.66v-4.878h10.814v-5.512h-16.531zm34.699-27.131v15.811l-11.056-15.811h-4.819v27.131h5.716V30.572l11.086 15.811h4.789V19.252z" style="--darkreader-inline-fill:var(--darkreader-text-14006e, #967fff)"/></svg>