<svg width="100" height="49" viewBox="0 0 100 49" fill="none" xmlns="http://www.w3.org/2000/svg">
<path d="M4 1.5H76C77.3807 1.5 78.5 2.61929 78.5 4V34.0332C78.4998 35.4137 77.3806 36.5332 76 36.5332H4C2.61943 36.5332 1.50022 35.4137 1.5 34.0332V4C1.5 2.61929 2.61929 1.5 4 1.5Z" fill="white" stroke="#336F91" stroke-width="3"/>
<path d="M11.5015 16.4051C14.3984 16.4053 16.7464 18.6328 16.7466 21.3806V31.991C16.7466 32.5433 16.2989 32.991 15.7466 32.991H7.25537C6.70309 32.991 6.25537 32.5433 6.25537 31.991V21.3806C6.25555 18.6327 8.60434 16.4051 11.5015 16.4051Z" fill="#336F91"/>
<ellipse cx="11.5013" cy="9.77066" rx="5.2459" ry="4.97589" fill="#336F91"/>
</svg>
