<svg width="100" height="69" viewBox="0 0 100 69" fill="none" xmlns="http://www.w3.org/2000/svg">
<path d="M4 19.8228H64.7656C66.1463 19.8228 67.2656 20.9421 67.2656 22.3228V49.9996C67.2656 51.3803 66.1463 52.4996 64.7656 52.4996H4C2.61929 52.4996 1.5 51.3803 1.5 49.9996V22.3228C1.5 20.9421 2.61929 19.8228 4 19.8228Z" fill="white" stroke="#336F91" stroke-width="3"/>
<path d="M32.9393 19.0607C33.5251 19.6464 34.4749 19.6464 35.0607 19.0607L44.6066 9.51472C45.1924 8.92893 45.1924 7.97919 44.6066 7.3934C44.0208 6.80761 43.0711 6.80761 42.4853 7.3934L34 15.8787L25.5147 7.3934C24.9289 6.80761 23.9792 6.80761 23.3934 7.3934C22.8076 7.97918 22.8076 8.92893 23.3934 9.51472L32.9393 19.0607ZM34 18L35.5 18L35.5 7.0518e-08L34 0L32.5 -7.0518e-08L32.5 18L34 18Z" fill="#336F91"/>
<path d="M85.0607 38.0607C85.6464 37.4749 85.6464 36.5251 85.0607 35.9393L75.5147 26.3934C74.9289 25.8076 73.9792 25.8076 73.3934 26.3934C72.8076 26.9792 72.8076 27.9289 73.3934 28.5147L81.8787 37L73.3934 45.4853C72.8076 46.0711 72.8076 47.0208 73.3934 47.6066C73.9792 48.1924 74.9289 48.1924 75.5147 47.6066L85.0607 38.0607ZM84 37L84 35.5L66 35.5L66 37L66 38.5L84 38.5L84 37Z" fill="#336F91"/>
</svg>
