<svg width="100" height="85" viewBox="0 0 100 85" fill="none" xmlns="http://www.w3.org/2000/svg">
<mask id="path-1-inside-1_2874_11698" fill="white">
<path d="M50.2354 61.9724H50.2295C49.9675 66.4206 38.825 70.0007 25.1172 70.0007C11.4096 70.0007 0.267897 66.4206 0.00585938 61.9724H0V45.5964H50.2354V61.9724Z"/>
</mask>
<path d="M50.2354 61.9724H50.2295C49.9675 66.4206 38.825 70.0007 25.1172 70.0007C11.4096 70.0007 0.267897 66.4206 0.00585938 61.9724H0V45.5964H50.2354V61.9724Z" fill="white"/>
<path d="M50.2354 61.9724V64.9724C51.8922 64.9724 53.2354 63.6293 53.2354 61.9724H50.2354ZM50.2295 61.9724V58.9724C48.6412 58.9724 47.3281 60.2104 47.2347 61.796L50.2295 61.9724ZM25.1172 70.0007L25.1172 73.0007H25.1172V70.0007ZM0.00585938 61.9724L3.00067 61.796C2.90726 60.2104 1.59419 58.9724 0.00585938 58.9724V61.9724ZM0 61.9724H-3C-3 63.6293 -1.65685 64.9724 0 64.9724L0 61.9724ZM0 45.5964V42.5964C-1.65685 42.5964 -3 43.9396 -3 45.5964H0ZM50.2354 45.5964H53.2354C53.2354 43.9396 51.8922 42.5964 50.2354 42.5964V45.5964ZM50.2354 61.9724V58.9724H50.2295V61.9724V64.9724H50.2354V61.9724ZM50.2295 61.9724L47.2347 61.796C47.245 61.6216 47.319 61.9644 46.3354 62.694C45.4033 63.3855 43.8976 64.1261 41.8007 64.7975C37.6355 66.1312 31.7451 67.0007 25.1172 67.0007V70.0007V73.0007C32.197 73.0007 38.7318 72.0802 43.6303 70.5118C46.0653 69.7321 48.2511 68.7436 49.9102 67.5128C51.5179 66.3201 53.083 64.5473 53.2243 62.1488L50.2295 61.9724ZM25.1172 70.0007L25.1172 67.0007C18.4894 67.0007 12.5992 66.1311 8.43431 64.7975C6.33751 64.1261 4.83194 63.3855 3.89988 62.694C2.91643 61.9644 2.9904 61.6217 3.00067 61.796L0.00585938 61.9724L-2.98895 62.1488C-2.84766 64.5472 -1.28272 66.32 0.324967 67.5127C1.98404 68.7436 4.16975 69.732 6.60459 70.5117C11.5029 72.0802 18.0374 73.0007 25.1172 73.0007L25.1172 70.0007ZM0.00585938 61.9724V58.9724H0V61.9724V64.9724H0.00585938V61.9724ZM0 61.9724H3V45.5964H0H-3V61.9724H0ZM0 45.5964V48.5964H50.2354V45.5964V42.5964H0V45.5964ZM50.2354 45.5964H47.2354V61.9724H50.2354H53.2354V45.5964H50.2354Z" fill="#336F91" mask="url(#path-1-inside-1_2874_11698)"/>
<mask id="path-3-inside-2_2874_11698" fill="white">
<path d="M50.2354 48.165H50.2295C49.9675 52.6132 38.825 56.1933 25.1172 56.1933C11.4096 56.1932 0.267837 52.6132 0.00585938 48.165H0V31.789H50.2354V48.165Z"/>
</mask>
<path d="M50.2354 48.165H50.2295C49.9675 52.6132 38.825 56.1933 25.1172 56.1933C11.4096 56.1932 0.267837 52.6132 0.00585938 48.165H0V31.789H50.2354V48.165Z" fill="white"/>
<path d="M50.2354 48.165V51.165C51.8922 51.165 53.2354 49.8219 53.2354 48.165H50.2354ZM50.2295 48.165V45.165C48.6411 45.165 47.3281 46.403 47.2347 47.9886L50.2295 48.165ZM25.1172 56.1933L25.1172 59.1933H25.1172V56.1933ZM0.00585938 48.165L3.00067 47.9886C2.90728 46.403 1.5942 45.165 0.00585938 45.165V48.165ZM0 48.165H-3C-3 49.8219 -1.65685 51.165 0 51.165L0 48.165ZM0 31.789V28.789C-1.65685 28.789 -3 30.1322 -3 31.789H0ZM50.2354 31.789H53.2354C53.2354 30.1322 51.8922 28.789 50.2354 28.789V31.789ZM50.2354 48.165V45.165H50.2295V48.165V51.165H50.2354V48.165ZM50.2295 48.165L47.2347 47.9886C47.2449 47.8143 47.319 48.157 46.3354 48.8866C45.4033 49.5781 43.8976 50.3187 41.8007 50.9901C37.6356 52.3238 31.7452 53.1933 25.1172 53.1933V56.1933V59.1933C32.197 59.1933 38.7318 58.2728 43.6304 56.7044C46.0653 55.9247 48.2511 54.9362 49.9102 53.7054C51.518 52.5127 53.083 50.7398 53.2243 48.3414L50.2295 48.165ZM25.1172 56.1933L25.1172 53.1933C18.4893 53.1933 12.5992 52.3237 8.43427 50.9901C6.33747 50.3187 4.8319 49.5781 3.89985 48.8866C2.91642 48.157 2.9904 47.8143 3.00067 47.9886L0.00585938 48.165L-2.98895 48.3414C-2.8477 50.7398 -1.28276 52.5126 0.324931 53.7053C1.984 54.9362 4.16972 55.9247 6.60455 56.7043C11.5029 58.2728 18.0374 59.1933 25.1172 59.1933L25.1172 56.1933ZM0.00585938 48.165V45.165H0V48.165V51.165H0.00585938V48.165ZM0 48.165H3V31.789H0H-3V48.165H0ZM0 31.789V34.789H50.2354V31.789V28.789H0V31.789ZM50.2354 31.789H47.2354V48.165H50.2354H53.2354V31.789H50.2354Z" fill="#336F91" mask="url(#path-3-inside-2_2874_11698)"/>
<mask id="path-5-inside-3_2874_11698" fill="white">
<path d="M50.2354 41.7437H50.2295C49.9661 46.1915 38.8241 49.771 25.1172 49.771C11.4105 49.7709 0.269233 46.1914 0.00585938 41.7437H0V27.6147H50.2354V41.7437Z"/>
</mask>
<path d="M50.2354 41.7437H50.2295C49.9661 46.1915 38.8241 49.771 25.1172 49.771C11.4105 49.7709 0.269233 46.1914 0.00585938 41.7437H0V27.6147H50.2354V41.7437Z" fill="white"/>
<path d="M50.2354 41.7437V44.7437C51.8922 44.7437 53.2354 43.4005 53.2354 41.7437H50.2354ZM50.2295 41.7437V38.7437C48.6415 38.7437 47.3286 39.9811 47.2347 41.5663L50.2295 41.7437ZM25.1172 49.771L25.1172 52.771H25.1172V49.771ZM0.00585938 41.7437L3.00061 41.5663C2.90675 39.9811 1.59384 38.7437 0.00585938 38.7437V41.7437ZM0 41.7437H-3C-3 43.4005 -1.65685 44.7437 0 44.7437L0 41.7437ZM0 27.6147V24.6147C-1.65685 24.6147 -3 25.9579 -3 27.6147H0ZM50.2354 27.6147H53.2354C53.2354 25.9579 51.8922 24.6147 50.2354 24.6147V27.6147ZM50.2354 41.7437V38.7437H50.2295V41.7437V44.7437H50.2354V41.7437ZM50.2295 41.7437L47.2347 41.5663C47.245 41.3922 47.3187 41.7351 46.335 42.4648C45.4026 43.1563 43.8969 43.8968 41.8 44.5681C37.6348 45.9016 31.7447 46.771 25.1172 46.771V49.771V52.771C32.1966 52.771 38.731 51.8506 43.6294 50.2824C46.0643 49.5029 48.2501 48.5145 49.9093 47.2839C51.517 46.0915 53.0822 44.319 53.2242 41.921L50.2295 41.7437ZM25.1172 49.771L25.1172 46.771C18.4898 46.771 12.5999 45.9015 8.43502 44.5681C6.33824 43.8967 4.83256 43.1562 3.90032 42.4648C2.91664 41.7352 2.9903 41.3922 3.00061 41.5663L0.00585938 41.7437L-2.98889 41.921C-2.8469 44.319 -1.28182 46.0914 0.325897 47.2838C1.98504 48.5145 4.17072 49.5028 6.60551 50.2823C11.5037 51.8506 18.0379 52.771 25.1172 52.771L25.1172 49.771ZM0.00585938 41.7437V38.7437H0V41.7437V44.7437H0.00585938V41.7437ZM0 41.7437H3V27.6147H0H-3V41.7437H0ZM0 27.6147V30.6147H50.2354V27.6147V24.6147H0V27.6147ZM50.2354 27.6147H47.2354V41.7437H50.2354H53.2354V27.6147H50.2354Z" fill="#336F91" mask="url(#path-5-inside-3_2874_11698)"/>
<path d="M25.1172 20.766C31.9396 20.766 38.0558 21.6695 42.4141 23.0902C44.6013 23.8033 46.2625 24.6206 47.3457 25.4555C48.4496 26.3064 48.7354 26.9951 48.7354 27.4545C48.7352 27.9139 48.4495 28.6028 47.3457 29.4535C46.2625 30.2883 44.6011 31.1048 42.4141 31.8178C38.0558 33.2385 31.9396 34.142 25.1172 34.142C18.2949 34.142 12.1795 33.2385 7.82129 31.8178C5.63423 31.1048 3.97282 30.2883 2.88965 29.4535C1.78584 28.6028 1.50014 27.9139 1.5 27.4545C1.5 26.9951 1.78569 26.3064 2.88965 25.4555C3.97284 24.6206 5.63407 23.8033 7.82129 23.0902C12.1795 21.6695 18.2949 20.7661 25.1172 20.766Z" fill="white" stroke="#336F91" stroke-width="3"/>
<path d="M24.2299 20.4652C24.8157 21.051 25.7654 21.051 26.3512 20.4652L35.8971 10.9193C36.4829 10.3335 36.4829 9.38373 35.8971 8.79794C35.3113 8.21215 34.3616 8.21215 33.7758 8.79794L25.2905 17.2832L16.8052 8.79794C16.2195 8.21215 15.2697 8.21215 14.6839 8.79794C14.0981 9.38373 14.0981 10.3335 14.6839 10.9193L24.2299 20.4652ZM25.2905 19.4045L26.7905 19.4045L26.7905 -2.47297e-05L25.2905 -2.47955e-05L23.7905 -2.48613e-05L23.7905 19.4045L25.2905 19.4045Z" fill="#336F91"/>
</svg>
